<svg width="31" height="13" viewBox="0 0 31 13" fill="none" xmlns="http://www.w3.org/2000/svg">
<rect width="31" height="13" rx="6" fill="#FEE3E3"/>
<path d="M11.2472 9H9.44247V3.90909H11.2621C11.7741 3.90909 12.215 4.01101 12.5845 4.21484C12.9541 4.41702 13.2383 4.70786 13.4371 5.08736C13.6377 5.46686 13.7379 5.92093 13.7379 6.44957C13.7379 6.97988 13.6377 7.43561 13.4371 7.81676C13.2383 8.19792 12.9524 8.49041 12.5795 8.69425C12.2083 8.89808 11.7642 9 11.2472 9ZM10.5188 8.07777H11.2024C11.5206 8.07777 11.7882 8.02143 12.0053 7.90874C12.2241 7.79439 12.3881 7.6179 12.4975 7.37926C12.6085 7.13897 12.6641 6.82907 12.6641 6.44957C12.6641 6.07339 12.6085 5.76598 12.4975 5.52734C12.3881 5.28871 12.2249 5.11304 12.0078 5.00035C11.7907 4.88767 11.5231 4.83132 11.2049 4.83132H10.5188V8.07777ZM14.1152 9V3.90909H17.5456V4.79652H15.1916V6.00959H17.3692V6.89702H15.1916V8.11257H17.5556V9H14.1152ZM17.9814 9V3.90909H19.0577V8.11257H21.2403V9H17.9814Z" fill="#B91C1C"/>
</svg>
