<svg width="31" height="13" viewBox="0 0 31 13" fill="none" xmlns="http://www.w3.org/2000/svg">
<rect width="31" height="13" rx="6" fill="#D1E2FF"/>
<path d="M6.44247 9V3.90909H8.45099C8.83712 3.90909 9.16607 3.98284 9.43786 4.13033C9.70964 4.27616 9.91679 4.47917 10.0593 4.73935C10.2035 4.99787 10.2756 5.29616 10.2756 5.63423C10.2756 5.9723 10.2027 6.2706 10.0568 6.52912C9.91099 6.78764 9.69969 6.98899 9.42294 7.13317C9.14785 7.27734 8.81475 7.34943 8.42365 7.34943H7.14347V6.48686H8.24964C8.45679 6.48686 8.62749 6.45123 8.76172 6.37997C8.89761 6.30705 8.9987 6.20679 9.06499 6.07919C9.13293 5.94993 9.1669 5.80161 9.1669 5.63423C9.1669 5.4652 9.13293 5.31771 9.06499 5.19176C8.9987 5.06416 8.89761 4.96555 8.76172 4.89595C8.62583 4.82469 8.45348 4.78906 8.24467 4.78906H7.51882V9H6.44247ZM15.233 6.45455C15.233 7.00971 15.1277 7.48201 14.9173 7.87145C14.7085 8.26089 14.4234 8.55836 14.0622 8.76385C13.7025 8.96768 13.2982 9.0696 12.8491 9.0696C12.3967 9.0696 11.9907 8.96686 11.631 8.76136C11.2714 8.55587 10.9872 8.2584 10.7784 7.86896C10.5696 7.47952 10.4652 7.00805 10.4652 6.45455C10.4652 5.89938 10.5696 5.42708 10.7784 5.03764C10.9872 4.6482 11.2714 4.35156 11.631 4.14773C11.9907 3.94223 12.3967 3.83949 12.8491 3.83949C13.2982 3.83949 13.7025 3.94223 14.0622 4.14773C14.4234 4.35156 14.7085 4.6482 14.9173 5.03764C15.1277 5.42708 15.233 5.89938 15.233 6.45455ZM14.1417 6.45455C14.1417 6.09493 14.0878 5.79167 13.9801 5.54474C13.8741 5.29782 13.7241 5.11056 13.5302 4.98295C13.3363 4.85535 13.1093 4.79155 12.8491 4.79155C12.5889 4.79155 12.3619 4.85535 12.168 4.98295C11.9741 5.11056 11.8233 5.29782 11.7156 5.54474C11.6095 5.79167 11.5565 6.09493 11.5565 6.45455C11.5565 6.81416 11.6095 7.11742 11.7156 7.36435C11.8233 7.61127 11.9741 7.79853 12.168 7.92614C12.3619 8.05374 12.5889 8.11754 12.8491 8.11754C13.1093 8.11754 13.3363 8.05374 13.5302 7.92614C13.7241 7.79853 13.8741 7.61127 13.9801 7.36435C14.0878 7.11742 14.1417 6.81416 14.1417 6.45455ZM18.372 5.37322C18.3521 5.1727 18.2668 5.01693 18.116 4.90589C17.9652 4.79486 17.7605 4.73935 17.502 4.73935C17.3263 4.73935 17.178 4.7642 17.057 4.81392C16.936 4.86198 16.8432 4.9291 16.7786 5.01527C16.7156 5.10144 16.6841 5.19922 16.6841 5.30859C16.6808 5.39974 16.6999 5.47929 16.7413 5.54723C16.7844 5.61518 16.8432 5.67401 16.9178 5.72372C16.9924 5.77178 17.0786 5.81404 17.1763 5.8505C17.2741 5.8853 17.3785 5.91513 17.4895 5.93999L17.9469 6.04936C18.169 6.09908 18.3728 6.16536 18.5584 6.24822C18.744 6.33108 18.9048 6.433 19.0407 6.55398C19.1766 6.67495 19.2818 6.81747 19.3564 6.98153C19.4326 7.1456 19.4716 7.33369 19.4732 7.54581C19.4716 7.85736 19.392 8.12749 19.2346 8.35618C19.0788 8.58321 18.8534 8.75971 18.5584 8.88565C18.2651 9.00994 17.9113 9.07209 17.497 9.07209C17.086 9.07209 16.7281 9.00911 16.4231 8.88317C16.1199 8.75722 15.8829 8.57079 15.7122 8.32386C15.5432 8.07528 15.4545 7.76787 15.4462 7.40163H16.4878C16.4994 7.57232 16.5483 7.71484 16.6344 7.82919C16.7223 7.94188 16.8391 8.02723 16.9849 8.08523C17.1324 8.14157 17.299 8.16974 17.4846 8.16974C17.6669 8.16974 17.8251 8.14323 17.9594 8.0902C18.0953 8.03717 18.2005 7.96342 18.2751 7.86896C18.3496 7.7745 18.3869 7.66596 18.3869 7.54332C18.3869 7.42898 18.3529 7.33286 18.285 7.25497C18.2187 7.17708 18.1209 7.1108 17.9917 7.05611C17.8641 7.00142 17.7075 6.9517 17.5219 6.90696L16.9675 6.76776C16.5383 6.66335 16.1994 6.50012 15.9508 6.27805C15.7023 6.05599 15.5788 5.75687 15.5805 5.38068C15.5788 5.07244 15.6608 4.80315 15.8265 4.5728C15.9939 4.34245 16.2234 4.16264 16.5151 4.03338C16.8068 3.90412 17.1382 3.83949 17.5094 3.83949C17.8873 3.83949 18.2171 3.90412 18.4988 4.03338C18.7822 4.16264 19.0026 4.34245 19.16 4.5728C19.3174 4.80315 19.3986 5.06996 19.4036 5.37322H18.372ZM19.5833 4.79652V3.90909H23.7644V4.79652H22.2058V9H21.1419V4.79652H19.5833Z" fill="#1D4ED8"/>
</svg>
