<svg width="500" height="417" viewBox="0 0 500 417" fill="none" xmlns="http://www.w3.org/2000/svg">
<rect width="500" height="417" fill="white"/>
<path d="M240.89 398.01C347.972 398.01 434.78 392.942 434.78 386.69C434.78 380.438 347.972 375.37 240.89 375.37C133.808 375.37 47 380.438 47 386.69C47 392.942 133.808 398.01 240.89 398.01Z" fill="#F5F5F5"/>
<path d="M410.69 116.27H312.59C307.415 116.27 303.22 120.465 303.22 125.64V152.32C303.22 157.495 307.415 161.69 312.59 161.69H410.69C415.865 161.69 420.06 157.495 420.06 152.32V125.64C420.06 120.465 415.865 116.27 410.69 116.27Z" fill="#3B82F6"/>
<path d="M391.23 123.93H314.6C313.694 123.93 312.96 124.664 312.96 125.57V127.37C312.96 128.276 313.694 129.01 314.6 129.01H391.23C392.136 129.01 392.87 128.276 392.87 127.37V125.57C392.87 124.664 392.136 123.93 391.23 123.93Z" fill="#3B82F6"/>
<path d="M366.96 136.17H314.6C313.694 136.17 312.96 136.904 312.96 137.81V139.61C312.96 140.516 313.694 141.25 314.6 141.25H366.96C367.866 141.25 368.6 140.516 368.6 139.61V137.81C368.6 136.904 367.866 136.17 366.96 136.17Z" fill="#3B82F6"/>
<path d="M352.92 148.41H314.6C313.694 148.41 312.96 149.144 312.96 150.05V151.85C312.96 152.756 313.694 153.49 314.6 153.49H352.92C353.826 153.49 354.56 152.756 354.56 151.85V150.05C354.56 149.144 353.826 148.41 352.92 148.41Z" fill="#3B82F6"/>
<path d="M400.41 148.41H362.09C361.184 148.41 360.45 149.144 360.45 150.05V151.85C360.45 152.756 361.184 153.49 362.09 153.49H400.41C401.316 153.49 402.05 152.756 402.05 151.85V150.05C402.05 149.144 401.316 148.41 400.41 148.41Z" fill="#3B82F6"/>
<g opacity="0.5">
<path d="M391.23 123.93H314.6C313.694 123.93 312.96 124.664 312.96 125.57V127.37C312.96 128.276 313.694 129.01 314.6 129.01H391.23C392.136 129.01 392.87 128.276 392.87 127.37V125.57C392.87 124.664 392.136 123.93 391.23 123.93Z" fill="white"/>
<path d="M366.96 136.17H314.6C313.694 136.17 312.96 136.904 312.96 137.81V139.61C312.96 140.516 313.694 141.25 314.6 141.25H366.96C367.866 141.25 368.6 140.516 368.6 139.61V137.81C368.6 136.904 367.866 136.17 366.96 136.17Z" fill="white"/>
<path d="M352.92 148.41H314.6C313.694 148.41 312.96 149.144 312.96 150.05V151.85C312.96 152.756 313.694 153.49 314.6 153.49H352.92C353.826 153.49 354.56 152.756 354.56 151.85V150.05C354.56 149.144 353.826 148.41 352.92 148.41Z" fill="white"/>
<path d="M400.41 148.41H362.09C361.184 148.41 360.45 149.144 360.45 150.05V151.85C360.45 152.756 361.184 153.49 362.09 153.49H400.41C401.316 153.49 402.05 152.756 402.05 151.85V150.05C402.05 149.144 401.316 148.41 400.41 148.41Z" fill="white"/>
</g>
<path d="M332.11 105.68H220.76C213.172 105.68 207.02 111.832 207.02 119.42V158.54C207.02 166.128 213.172 172.28 220.76 172.28H332.11C339.698 172.28 345.85 166.128 345.85 158.54V119.42C345.85 111.832 339.698 105.68 332.11 105.68Z" fill="#3B82F6"/>
<path d="M336.05 116.91H223.71C222.379 116.91 221.3 117.989 221.3 119.32V121.95C221.3 123.281 222.379 124.36 223.71 124.36H336.05C337.381 124.36 338.46 123.281 338.46 121.95V119.32C338.46 117.989 337.381 116.91 336.05 116.91Z" fill="#3B82F6"/>
<path d="M300.46 134.86H223.71C222.379 134.86 221.3 135.939 221.3 137.27V139.9C221.3 141.231 222.379 142.31 223.71 142.31H300.46C301.791 142.31 302.87 141.231 302.87 139.9V137.27C302.87 135.939 301.791 134.86 300.46 134.86Z" fill="#3B82F6"/>
<path d="M279.88 152.81H223.71C222.379 152.81 221.3 153.889 221.3 155.22V157.85C221.3 159.181 222.379 160.26 223.71 160.26H279.88C281.211 160.26 282.29 159.181 282.29 157.85V155.22C282.29 153.889 281.211 152.81 279.88 152.81Z" fill="#3B82F6"/>
<path d="M340.14 152.81H293.34C292.009 152.81 290.93 153.889 290.93 155.22V157.85C290.93 159.181 292.009 160.26 293.34 160.26H340.14C341.471 160.26 342.55 159.181 342.55 157.85V155.22C342.55 153.889 341.471 152.81 340.14 152.81Z" fill="#3B82F6"/>
<g opacity="0.5">
<path d="M336.05 116.91H223.71C222.379 116.91 221.3 117.989 221.3 119.32V121.95C221.3 123.281 222.379 124.36 223.71 124.36H336.05C337.381 124.36 338.46 123.281 338.46 121.95V119.32C338.46 117.989 337.381 116.91 336.05 116.91Z" fill="white"/>
<path d="M300.46 134.86H223.71C222.379 134.86 221.3 135.939 221.3 137.27V139.9C221.3 141.231 222.379 142.31 223.71 142.31H300.46C301.791 142.31 302.87 141.231 302.87 139.9V137.27C302.87 135.939 301.791 134.86 300.46 134.86Z" fill="white"/>
<path d="M279.88 152.81H223.71C222.379 152.81 221.3 153.889 221.3 155.22V157.85C221.3 159.181 222.379 160.26 223.71 160.26H279.88C281.211 160.26 282.29 159.181 282.29 157.85V155.22C282.29 153.889 281.211 152.81 279.88 152.81Z" fill="white"/>
<path d="M340.14 152.81H293.34C292.009 152.81 290.93 153.889 290.93 155.22V157.85C290.93 159.181 292.009 160.26 293.34 160.26H340.14C341.471 160.26 342.55 159.181 342.55 157.85V155.22C342.55 153.889 341.471 152.81 340.14 152.81Z" fill="white"/>
</g>
<path d="M262.88 184.35H209.25C205.704 184.35 202.83 187.224 202.83 190.77V271.11C202.83 274.656 205.704 277.53 209.25 277.53H262.88C266.426 277.53 269.3 274.656 269.3 271.11V190.77C269.3 187.224 266.426 184.35 262.88 184.35Z" fill="#3B82F6"/>
<path opacity="0.4" d="M262.88 184.35H209.25C205.704 184.35 202.83 187.224 202.83 190.77V271.11C202.83 274.656 205.704 277.53 209.25 277.53H262.88C266.426 277.53 269.3 274.656 269.3 271.11V190.77C269.3 187.224 266.426 184.35 262.88 184.35Z" fill="black"/>
<path d="M260.42 194.07H211.7C211.048 194.07 210.52 194.598 210.52 195.25V197.02C210.52 197.672 211.048 198.2 211.7 198.2H260.42C261.072 198.2 261.6 197.672 261.6 197.02V195.25C261.6 194.598 261.072 194.07 260.42 194.07Z" fill="#FAFAFA"/>
<path d="M244.91 204.01H211.7C211.048 204.01 210.52 204.538 210.52 205.19V206.96C210.52 207.612 211.048 208.14 211.7 208.14H244.91C245.562 208.14 246.09 207.612 246.09 206.96V205.19C246.09 204.538 245.562 204.01 244.91 204.01Z" fill="#FAFAFA"/>
<path d="M260.42 213.96H211.7C211.048 213.96 210.52 214.488 210.52 215.14V216.91C210.52 217.562 211.048 218.09 211.7 218.09H260.42C261.072 218.09 261.6 217.562 261.6 216.91V215.14C261.6 214.488 261.072 213.96 260.42 213.96Z" fill="#FAFAFA"/>
<path d="M229.81 223.9H211.7C211.048 223.9 210.52 224.428 210.52 225.08V226.85C210.52 227.502 211.048 228.03 211.7 228.03H229.81C230.462 228.03 230.99 227.502 230.99 226.85V225.08C230.99 224.428 230.462 223.9 229.81 223.9Z" fill="#FAFAFA"/>
<path d="M255.15 223.9H237.04C236.389 223.9 235.86 224.428 235.86 225.08V226.85C235.86 227.502 236.389 228.03 237.04 228.03H255.15C255.802 228.03 256.33 227.502 256.33 226.85V225.08C256.33 224.428 255.802 223.9 255.15 223.9Z" fill="#FAFAFA"/>
<path d="M260.42 233.85H211.7C211.048 233.85 210.52 234.378 210.52 235.03V236.8C210.52 237.452 211.048 237.98 211.7 237.98H260.42C261.072 237.98 261.6 237.452 261.6 236.8V235.03C261.6 234.378 261.072 233.85 260.42 233.85Z" fill="#FAFAFA"/>
<path d="M260.42 243.79H211.7C211.048 243.79 210.52 244.318 210.52 244.97V246.74C210.52 247.392 211.048 247.92 211.7 247.92H260.42C261.072 247.92 261.6 247.392 261.6 246.74V244.97C261.6 244.318 261.072 243.79 260.42 243.79Z" fill="#FAFAFA"/>
<path d="M251.78 253.74H211.7C211.048 253.74 210.52 254.268 210.52 254.92V256.69C210.52 257.342 211.048 257.87 211.7 257.87H251.78C252.432 257.87 252.96 257.342 252.96 256.69V254.92C252.96 254.268 252.432 253.74 251.78 253.74Z" fill="#FAFAFA"/>
<path d="M230.4 263.68H211.7C211.048 263.68 210.52 264.208 210.52 264.86V266.63C210.52 267.282 211.048 267.81 211.7 267.81H230.4C231.052 267.81 231.58 267.282 231.58 266.63V264.86C231.58 264.208 231.052 263.68 230.4 263.68Z" fill="#FAFAFA"/>
<path d="M277.39 183.78H203L235.89 209.95L286.32 228.95V192.69C286.315 190.325 285.372 188.059 283.697 186.388C282.023 184.718 279.755 183.78 277.39 183.78Z" fill="#3B82F6"/>
<path opacity="0.4" d="M277.39 183.78H203L235.89 209.95L286.32 228.95V192.69C286.315 190.325 285.372 188.059 283.697 186.388C282.023 184.718 279.755 183.78 277.39 183.78Z" fill="black"/>
<path d="M274.14 197.26H219.71C218.893 197.26 218.23 197.923 218.23 198.74V201.5C218.23 202.317 218.893 202.98 219.71 202.98H274.14C274.957 202.98 275.62 202.317 275.62 201.5V198.74C275.62 197.923 274.957 197.26 274.14 197.26Z" fill="#FAFAFA"/>
<path d="M406.04 254.62V202.3C406.04 198.29 402.79 195.04 398.78 195.04H307.93C303.92 195.04 300.67 198.29 300.67 202.3V254.62C300.67 258.63 303.92 261.88 307.93 261.88H398.78C402.79 261.88 406.04 258.63 406.04 254.62Z" fill="#3B82F6"/>
<path d="M422.63 238.04V185.72C422.63 181.71 419.379 178.46 415.37 178.46H324.52C320.51 178.46 317.26 181.71 317.26 185.72V238.04C317.26 242.05 320.51 245.3 324.52 245.3H415.37C419.379 245.3 422.63 242.05 422.63 238.04Z" fill="#3B82F6"/>
<path opacity="0.5" d="M422.63 238.04V185.72C422.63 181.71 419.379 178.46 415.37 178.46H324.52C320.51 178.46 317.26 181.71 317.26 185.72V238.04C317.26 242.05 320.51 245.3 324.52 245.3H415.37C419.379 245.3 422.63 242.05 422.63 238.04Z" fill="white"/>
<path d="M413.41 220.11V187.9C413.41 186.116 411.964 184.67 410.18 184.67H380.49C378.706 184.67 377.26 186.116 377.26 187.9V220.11C377.26 221.894 378.706 223.34 380.49 223.34H410.18C411.964 223.34 413.41 221.894 413.41 220.11Z" fill="#3B82F6"/>
<path opacity="0.7" d="M413.41 220.11V187.9C413.41 186.116 411.964 184.67 410.18 184.67H380.49C378.706 184.67 377.26 186.116 377.26 187.9V220.11C377.26 221.894 378.706 223.34 380.49 223.34H410.18C411.964 223.34 413.41 221.894 413.41 220.11Z" fill="white"/>
<path d="M371.6 235.69V211.01C371.6 209.64 370.49 208.53 369.12 208.53H346.37C345 208.53 343.89 209.64 343.89 211.01V235.69C343.89 237.06 345 238.17 346.37 238.17H369.12C370.49 238.17 371.6 237.06 371.6 235.69Z" fill="#3B82F6"/>
<path opacity="0.3" d="M371.6 235.69V211.01C371.6 209.64 370.49 208.53 369.12 208.53H346.37C345 208.53 343.89 209.64 343.89 211.01V235.69C343.89 237.06 345 238.17 346.37 238.17H369.12C370.49 238.17 371.6 237.06 371.6 235.69Z" fill="white"/>
<path d="M357.74 79.21V65.88C357.74 61.8041 354.436 58.5 350.36 58.5L106.23 58.5C102.154 58.5 98.8502 61.8041 98.8502 65.88V79.21C98.8502 83.2859 102.154 86.59 106.23 86.59L350.36 86.59C354.436 86.59 357.74 83.2859 357.74 79.21Z" fill="#3B82F6"/>
<path opacity="0.5" d="M357.74 79.21V65.88C357.74 61.8041 354.436 58.5 350.36 58.5L106.23 58.5C102.154 58.5 98.8502 61.8041 98.8502 65.88V79.21C98.8502 83.2859 102.154 86.59 106.23 86.59L350.36 86.59C354.436 86.59 357.74 83.2859 357.74 79.21Z" fill="white"/>
<path d="M311.55 91.29V81.62H241.3V91.29H311.55Z" fill="#3B82F6"/>
<path opacity="0.5" d="M311.55 91.29V81.62H241.3V91.29H311.55Z" fill="white"/>
<path d="M382.93 37.71V24.38C382.93 20.3041 379.626 17 375.55 17L131.42 17C127.344 17 124.04 20.3041 124.04 24.38V37.71C124.04 41.7859 127.344 45.09 131.42 45.09L375.55 45.09C379.626 45.09 382.93 41.7859 382.93 37.71Z" fill="#3B82F6"/>
<path d="M121.25 164.71C120.37 166.71 119.4 168.87 118.55 170.98C117.7 173.09 116.82 175.26 116.05 177.42C114.47 181.631 113.203 185.953 112.26 190.35L111.97 191.95L111.87 192.55C111.87 192.72 111.87 192.94 111.81 193.14C111.772 194.114 111.792 195.089 111.87 196.06C112.06 198.17 112.4 200.43 112.87 202.69C113.71 207.22 114.78 211.89 115.87 216.49L110.74 218.49C108.348 214.131 106.312 209.586 104.65 204.9C103.774 202.461 103.066 199.965 102.53 197.43C102.229 196.027 102.042 194.603 101.97 193.17C101.97 192.77 101.97 192.39 101.97 191.96C101.97 191.53 101.97 191.05 102.04 190.77L102.24 188.77C102.539 186.194 102.996 183.639 103.61 181.12C104.17 178.62 104.89 176.19 105.61 173.79C106.33 171.39 107.23 169.03 108.18 166.71C108.65 165.55 109.18 164.4 109.64 163.25C110.1 162.1 110.64 161 111.28 159.77L121.25 164.71Z" fill="#E4897B"/>
<path d="M115.6 215.14L119.5 218.95L110.99 222.95C110.99 222.95 108.93 219.34 110.36 216.08L115.6 215.14Z" fill="#E4897B"/>
<path d="M122.65 224.62L115.46 227.56L111 222.91L119.5 218.95L122.65 224.62Z" fill="#E4897B"/>
<path opacity="0.4" d="M268.3 220.52C254.151 218.931 240.79 213.183 229.908 204.003C219.025 194.822 211.108 182.621 207.159 168.941C203.209 155.262 203.404 140.719 207.719 127.151C212.034 113.582 220.274 101.598 231.399 92.7119C242.524 83.8262 256.034 78.4384 270.221 77.2296C284.407 76.0207 298.634 79.0452 311.102 85.9206C323.57 92.7959 333.719 103.214 340.267 115.856C346.815 128.499 349.468 142.8 347.89 156.95C346.841 166.351 343.951 175.454 339.383 183.738C334.815 192.021 328.659 199.324 321.268 205.227C313.876 211.131 305.394 215.52 296.305 218.144C287.217 220.768 277.7 221.575 268.3 220.52Z" fill="#FAFAFA"/>
<path opacity="0.4" d="M320.68 92.24L211.18 179.73C210.72 178.73 210.27 177.73 209.85 176.73C207.105 170.2 205.349 163.298 204.64 156.25L299.22 80.68C306.985 83.2702 314.245 87.1809 320.68 92.24Z" fill="#FAFAFA"/>
<path opacity="0.4" d="M345.95 130.57L243 212.82C233.22 207.722 224.744 200.44 218.23 191.54L330.64 101.72C337.886 110.037 343.124 119.908 345.95 130.57Z" fill="#FAFAFA"/>
<path d="M195.28 121.45L194.33 121.13C195.975 116.275 198.043 111.574 200.51 107.08L201.38 107.56C198.946 112.003 196.905 116.651 195.28 121.45ZM207.42 98.11L206.61 97.52C214.828 86.4079 225.584 77.4214 237.98 71.31L238.43 72.21C226.175 78.2583 215.542 87.1487 207.42 98.14V98.11ZM317.01 73.58C313.742 71.8272 310.361 70.2939 306.89 68.99L307.25 68.05C310.756 69.3844 314.17 70.9478 317.47 72.73L317.01 73.58Z" fill="#3B82F6"/>
<path opacity="0.3" d="M195.28 121.45L194.33 121.13C195.975 116.275 198.043 111.574 200.51 107.08L201.38 107.56C198.946 112.003 196.905 116.651 195.28 121.45ZM207.42 98.11L206.61 97.52C214.828 86.4079 225.584 77.4214 237.98 71.31L238.43 72.21C226.175 78.2583 215.542 87.1487 207.42 98.14V98.11ZM317.01 73.58C313.742 71.8272 310.361 70.2939 306.89 68.99L307.25 68.05C310.756 69.3844 314.17 70.9478 317.47 72.73L317.01 73.58Z" fill="black"/>
<path d="M350.76 112.19C341.5 92.9853 325.205 78.0804 305.253 70.5651C285.301 63.0498 263.223 63.5006 243.594 71.8239C223.965 80.1473 208.292 95.7049 199.824 115.271C191.356 134.838 190.742 156.913 198.11 176.92C191.43 179.26 184.83 181.77 178.27 184.36C168.81 188.113 159.437 192.033 150.15 196.12C140.87 200.23 131.63 204.42 122.48 208.8C117.89 210.95 113.36 213.22 108.79 215.42C106.413 216.442 104.259 217.919 102.45 219.77C101.471 220.795 100.609 221.925 99.8799 223.14C98.99 224.577 98.3161 226.137 97.8799 227.77C97.1275 230.713 97.4528 233.828 98.7973 236.551C100.142 239.275 102.416 241.428 105.21 242.62C106.761 243.271 108.398 243.695 110.07 243.88C111.482 244.04 112.908 244.04 114.32 243.88C116.886 243.569 119.366 242.757 121.62 241.49C126.15 239.2 130.71 236.99 135.21 234.64C144.21 230.05 153.21 225.26 162.1 220.4C170.99 215.54 179.89 210.45 188.57 205.23C194.57 201.6 200.63 197.89 206.57 194.01C217.976 212.017 235.873 224.945 256.551 230.116C277.23 235.286 299.105 232.304 317.645 221.785C336.184 211.266 349.966 194.019 356.134 173.616C362.303 153.212 360.386 131.218 350.78 112.19H350.76ZM305.3 207.72C293.679 213.456 280.617 215.618 267.768 213.931C254.918 212.245 242.857 206.786 233.109 198.245C223.362 189.704 216.366 178.464 213.006 165.948C209.646 153.431 210.073 140.199 214.233 127.925C218.393 115.65 226.099 104.885 236.376 96.9905C246.654 89.0957 259.042 84.4258 271.974 83.5712C284.906 82.7165 297.8 85.7156 309.028 92.1892C320.255 98.6627 329.311 108.32 335.05 119.94C338.861 127.657 341.115 136.049 341.683 144.637C342.25 153.225 341.12 161.841 338.358 169.992C335.595 178.144 331.254 185.671 325.582 192.145C319.91 198.618 313.018 203.91 305.3 207.72Z" fill="#3B82F6"/>
<path opacity="0.3" d="M350.76 112.19C341.5 92.9853 325.205 78.0804 305.253 70.5651C285.301 63.0498 263.223 63.5006 243.594 71.8239C223.965 80.1473 208.292 95.7049 199.824 115.271C191.356 134.838 190.742 156.913 198.11 176.92C191.43 179.26 184.83 181.77 178.27 184.36C168.81 188.113 159.437 192.033 150.15 196.12C140.87 200.23 131.63 204.42 122.48 208.8C117.89 210.95 113.36 213.22 108.79 215.42C106.413 216.442 104.259 217.919 102.45 219.77C101.471 220.795 100.609 221.925 99.8799 223.14C98.99 224.577 98.3161 226.137 97.8799 227.77C97.1275 230.713 97.4528 233.828 98.7973 236.551C100.142 239.275 102.416 241.428 105.21 242.62C106.761 243.271 108.398 243.695 110.07 243.88C111.482 244.04 112.908 244.04 114.32 243.88C116.886 243.569 119.366 242.757 121.62 241.49C126.15 239.2 130.71 236.99 135.21 234.64C144.21 230.05 153.21 225.26 162.1 220.4C170.99 215.54 179.89 210.45 188.57 205.23C194.57 201.6 200.63 197.89 206.57 194.01C217.976 212.017 235.873 224.945 256.551 230.116C277.23 235.286 299.105 232.304 317.645 221.785C336.184 211.266 349.966 194.019 356.134 173.616C362.303 153.212 360.386 131.218 350.78 112.19H350.76ZM305.3 207.72C293.679 213.456 280.617 215.618 267.768 213.931C254.918 212.245 242.857 206.786 233.109 198.245C223.362 189.704 216.366 178.464 213.006 165.948C209.646 153.431 210.073 140.199 214.233 127.925C218.393 115.65 226.099 104.885 236.376 96.9905C246.654 89.0957 259.042 84.4258 271.974 83.5712C284.906 82.7165 297.8 85.7156 309.028 92.1892C320.255 98.6627 329.311 108.32 335.05 119.94C338.861 127.657 341.115 136.049 341.683 144.637C342.25 153.225 341.12 161.841 338.358 169.992C335.595 178.144 331.254 185.671 325.582 192.145C319.91 198.618 313.018 203.91 305.3 207.72Z" fill="black"/>
<path d="M148.89 129C148.89 129.59 149.2 130.07 149.59 130.07C149.98 130.07 150.29 129.59 150.29 129C150.29 128.41 149.98 127.93 149.59 127.93C149.2 127.93 148.89 128.45 148.89 129Z" fill="#263238"/>
<path d="M149.17 130.07C149.878 131.881 150.83 133.587 152 135.14C151.595 135.429 151.132 135.627 150.644 135.718C150.155 135.81 149.652 135.793 149.17 135.67V130.07Z" fill="#DE5753"/>
<path d="M146.82 125.71C146.764 125.71 146.709 125.697 146.659 125.673C146.609 125.649 146.565 125.614 146.53 125.57C146.478 125.494 146.457 125.4 146.472 125.309C146.487 125.218 146.536 125.136 146.61 125.08C147.05 124.746 147.565 124.523 148.11 124.431C148.655 124.339 149.214 124.38 149.74 124.55C149.787 124.563 149.831 124.585 149.869 124.616C149.907 124.647 149.938 124.686 149.96 124.73C149.982 124.773 149.995 124.821 149.998 124.87C150 124.919 149.992 124.968 149.975 125.013C149.957 125.059 149.93 125.101 149.896 125.135C149.861 125.17 149.819 125.197 149.774 125.214C149.728 125.232 149.679 125.24 149.63 125.237C149.581 125.235 149.534 125.222 149.49 125.2C149.072 125.072 148.63 125.046 148.2 125.124C147.77 125.203 147.366 125.383 147.02 125.65C146.961 125.689 146.891 125.71 146.82 125.71Z" fill="#263238"/>
<path d="M128.69 133.45C129.69 138.82 130.79 148.67 127.03 152.26C127.03 152.26 128.5 157.71 138.49 157.71C149.49 157.71 143.73 152.26 143.73 152.26C137.73 150.82 137.9 146.38 138.94 142.2L128.69 133.45Z" fill="#E4897B"/>
<path d="M122.54 155.09C123.73 153.24 121.73 148.75 121.73 148.75C121.73 148.75 139.41 144.3 146.64 151.13C148.14 152.54 146.48 154.62 146.48 154.62L122.54 155.09Z" fill="#3B82F6"/>
<path opacity="0.1" d="M122.54 155.09C123.73 153.24 121.73 148.75 121.73 148.75C121.73 148.75 139.41 144.3 146.64 151.13C148.14 152.54 146.48 154.62 146.48 154.62L122.54 155.09Z" fill="black"/>
<path d="M93.2899 359.12C92.3599 359.12 90.8699 357.57 90.4299 356.99C90.411 356.962 90.4009 356.929 90.4009 356.895C90.4009 356.861 90.411 356.828 90.4299 356.8C90.446 356.772 90.4694 356.749 90.4976 356.733C90.5257 356.717 90.5576 356.709 90.5899 356.71C90.6999 356.71 93.1499 356.93 93.8199 357.8C93.8928 357.892 93.9448 357.998 93.9724 358.112C94 358.226 94.0026 358.345 93.9799 358.46C93.9712 358.609 93.9165 358.751 93.8234 358.868C93.7302 358.984 93.6032 359.069 93.4599 359.11L93.2899 359.12ZM90.9699 357.12C91.6999 357.96 92.8699 358.91 93.3699 358.79C93.3699 358.79 93.5699 358.74 93.6299 358.42C93.6431 358.353 93.6409 358.284 93.6236 358.218C93.6062 358.153 93.5742 358.092 93.5299 358.04C92.7891 357.479 91.8978 357.152 90.9699 357.1V357.12Z" fill="#3B82F6"/>
<path d="M91.0798 357.1C90.9003 357.118 90.7194 357.118 90.5398 357.1C90.5082 357.098 90.478 357.086 90.4531 357.066C90.4282 357.047 90.4096 357.02 90.3998 356.99C90.3857 356.962 90.3784 356.931 90.3784 356.9C90.3784 356.869 90.3857 356.838 90.3998 356.81C90.4698 356.75 91.9398 355.22 93.0498 355.22C93.1826 355.217 93.3146 355.242 93.437 355.294C93.5594 355.346 93.6694 355.423 93.7598 355.52C93.8594 355.603 93.9275 355.718 93.953 355.845C93.9784 355.973 93.9597 356.105 93.8998 356.22C93.6098 356.78 92.0798 357.1 91.0798 357.1ZM90.9498 356.75C91.9498 356.75 93.3998 356.44 93.6398 356C93.6398 356 93.7098 355.87 93.5498 355.71C93.4916 355.647 93.4203 355.597 93.3408 355.564C93.2614 355.531 93.1757 355.516 93.0898 355.52C92.2701 355.708 91.525 356.136 90.9498 356.75Z" fill="#3B82F6"/>
<path d="M159.28 381.82C158.522 381.815 157.766 381.745 157.02 381.61C156.983 381.603 156.95 381.583 156.926 381.554C156.902 381.524 156.889 381.488 156.89 381.45C156.884 381.415 156.889 381.38 156.903 381.348C156.917 381.316 156.941 381.289 156.97 381.27C157.08 381.21 159.64 379.74 160.87 380.08C160.984 380.106 161.092 380.155 161.186 380.223C161.281 380.292 161.36 380.379 161.42 380.48C161.498 380.591 161.54 380.724 161.54 380.86C161.54 380.996 161.498 381.129 161.42 381.24C161.13 381.69 160.22 381.82 159.28 381.82ZM157.59 381.35C158.95 381.55 160.81 381.54 161.15 381.06C161.2 381 161.24 380.89 161.15 380.68C161.074 380.556 160.952 380.466 160.81 380.43C160.03 380.23 158.48 380.89 157.59 381.35Z" fill="#3B82F6"/>
<path d="M157.06 381.62C157.027 381.629 156.993 381.629 156.96 381.62C156.932 381.602 156.911 381.576 156.898 381.546C156.886 381.516 156.883 381.482 156.89 381.45C156.958 380.409 157.357 379.417 158.03 378.62C158.166 378.503 158.326 378.416 158.499 378.366C158.671 378.316 158.852 378.304 159.03 378.33C159.51 378.33 159.65 378.62 159.68 378.81C159.81 379.64 158.06 381.23 157.17 381.63L157.06 381.62ZM158.85 378.62C158.63 378.618 158.417 378.697 158.25 378.84C157.685 379.472 157.335 380.266 157.25 381.11C158.15 380.56 159.35 379.32 159.25 378.82C159.25 378.82 159.25 378.65 158.91 378.62H158.85Z" fill="#3B82F6"/>
<path d="M148.98 381.44H156.33L157.06 364.43H149.71L148.98 381.44Z" fill="#E4897B"/>
<path d="M83.5298 352.24L89.6698 356.26L103.23 344.81L97.0798 340.78L83.5298 352.24Z" fill="#E4897B"/>
<path d="M90.6799 355.88L84.2999 350.65C84.1872 350.557 84.0458 350.507 83.8999 350.507C83.754 350.507 83.6127 350.557 83.4999 350.65L78.2399 354.78C78.1129 354.881 78.0102 355.01 77.9397 355.156C77.8692 355.302 77.8325 355.463 77.8325 355.625C77.8325 355.787 77.8692 355.948 77.9397 356.094C78.0102 356.24 78.1129 356.369 78.2399 356.47C80.4999 358.26 81.6899 359.02 84.4999 361.32C86.2299 362.73 90.4999 367.05 92.9099 369C95.3199 370.95 97.5299 368.85 96.7299 367.84C93.1399 363.29 91.7299 359.4 91.3199 356.99C91.2491 356.554 91.0215 356.16 90.6799 355.88Z" fill="#263238"/>
<path d="M156.28 380.59H148.28C148.134 380.591 147.993 380.64 147.879 380.731C147.764 380.822 147.684 380.948 147.65 381.09L146.2 387.62C146.164 387.778 146.164 387.943 146.2 388.101C146.237 388.259 146.309 388.407 146.411 388.533C146.513 388.659 146.643 388.761 146.79 388.83C146.937 388.898 147.098 388.933 147.26 388.93C150.15 388.88 154.33 388.71 157.97 388.71C162.22 388.71 165.9 388.94 170.88 388.94C173.88 388.94 174.74 385.89 173.47 385.62C167.73 384.36 163.03 384.23 158.07 381.16C157.538 380.808 156.918 380.61 156.28 380.59Z" fill="#263238"/>
<path d="M112.55 154.45C106.18 157.45 102.55 177.55 102.55 177.55L118.12 183.76C120.399 178.195 122.241 172.461 123.63 166.61C125.77 157.35 119.07 151.35 112.55 154.45Z" fill="#263238"/>
<path d="M120.81 165.78C116.96 169.68 115.2 177.32 114.43 182.29L118.16 183.78C120.374 178.373 122.179 172.807 123.56 167.13C123.23 165.01 122.41 164.16 120.81 165.78Z" fill="#203048"/>
<path d="M155.03 154.31C155.03 154.31 162.85 163.15 155.47 217.81H116.18C115.91 211.81 119.7 182.36 113.88 153.94C118.222 153.098 122.615 152.544 127.03 152.28C132.592 151.95 138.168 151.95 143.73 152.28C147.543 152.664 151.321 153.342 155.03 154.31Z" fill="#263238"/>
<path d="M158.62 175.53L152 164.12C150.722 169.444 150.2 174.921 150.45 180.39C150.63 184.31 154.22 198.83 157.45 200.95C158.307 192.505 158.698 184.018 158.62 175.53Z" fill="#203048"/>
<path d="M159.54 162.12C160.54 166.98 161.54 171.96 162.61 176.84C163.68 181.72 164.79 186.62 166.08 191.35C166.41 192.52 166.72 193.72 167.08 194.84L167.35 195.7L167.48 196.13V196.08C167.41 195.99 167.33 195.98 167.39 196.08C167.801 196.529 168.327 196.857 168.91 197.03C169.855 197.382 170.829 197.653 171.82 197.84C176.548 198.589 181.335 198.901 186.12 198.77L187.07 204.21C185.73 204.64 184.48 204.95 183.16 205.26C181.84 205.57 180.54 205.83 179.21 206.03C176.458 206.488 173.668 206.676 170.88 206.59C169.33 206.548 167.789 206.347 166.28 205.99C164.362 205.57 162.559 204.734 161 203.54C159.982 202.718 159.142 201.697 158.53 200.54C158.37 200.24 158.23 199.9 158.1 199.61L157.92 199.14L157.55 198.14C157.04 196.87 156.62 195.62 156.16 194.37C154.47 189.37 153.06 184.32 151.82 179.28C150.58 174.24 149.51 169.21 148.62 164.04L159.54 162.12Z" fill="#E4897B"/>
<path d="M145.22 159.67C143.15 166.38 151.54 186.39 151.54 186.39L168.25 182.19C168.25 182.19 167.61 171.79 163.8 163.54C158.06 151.1 147.7 151.62 145.22 159.67Z" fill="#263238"/>
<path d="M185.98 198.77L194.3 198.56L190.3 207.22C190.3 207.22 186.91 207.67 184.13 203.1L181.2 199.6L184.57 198.93C185.034 198.832 185.506 198.779 185.98 198.77Z" fill="#E4897B"/>
<path d="M199.55 200.17L194.79 207.35L190.3 207.22L194.3 198.56L199.55 200.17Z" fill="#E4897B"/>
<path d="M157.06 364.43L156.68 373.2H149.33L149.71 364.43H157.06Z" fill="#CE6F64"/>
<path d="M97.0798 340.78L103.23 344.81L96.2298 350.71L90.0898 346.69L97.0798 340.78Z" fill="#CE6F64"/>
<path d="M129.15 127.73C129.59 135 129.48 139.29 133.15 143.02C138.67 148.65 147.66 145.32 149.4 138.02C150.97 131.48 149.99 120.68 142.87 117.78C141.299 117.146 139.592 116.921 137.911 117.127C136.229 117.333 134.628 117.963 133.256 118.958C131.885 119.952 130.788 121.279 130.07 122.814C129.352 124.348 129.035 126.04 129.15 127.73Z" fill="#E4897B"/>
<path d="M120.59 126.45C122.4 133.08 126.66 140.72 132.17 141.21C139.01 141.81 142.1 134.74 143 127.44C147.1 124.63 144.95 121.54 149.06 121.15C154.34 120.65 152.65 110.99 145.7 109.44C145.7 109.44 148.03 113.79 143.14 111.59C138.49 109.38 133.323 108.484 128.2 109C128.2 109 134.44 112.12 128.34 113.51C122.24 114.9 120.42 118.66 123.23 120.93C123.23 120.94 119.4 122.09 120.59 126.45Z" fill="#263238"/>
<path d="M138.83 128.94C138.964 130.747 139.692 132.459 140.9 133.81C142.5 135.58 144.17 134.48 144.45 132.33C144.71 130.4 144.18 127.15 142.22 126.17C140.26 125.19 138.7 126.76 138.83 128.94Z" fill="#E4897B"/>
<path d="M141.53 217.81C141.53 217.81 148.69 269.66 143.05 290.44C134.11 323.34 99.9298 351.11 99.9298 351.11L88.3398 343.51C88.3398 343.51 117.45 320.06 121.01 292.51C124.21 267.78 116.18 237.87 116.18 217.8L141.53 217.81Z" fill="#3B82F6"/>
<path opacity="0.1" d="M141.53 217.81C141.53 217.81 148.69 269.66 143.05 290.44C134.11 323.34 99.9298 351.11 99.9298 351.11L88.3398 343.51C88.3398 343.51 117.45 320.06 121.01 292.51C124.21 267.78 116.18 237.87 116.18 217.8L141.53 217.81Z" fill="black"/>
<path d="M144.49 247.45C142.584 245.266 140.485 243.258 138.22 241.45C139.44 258.28 140.44 283.21 139.33 300.92C140.822 297.525 142.065 294.026 143.05 290.45C145.8 280.3 145.51 262.77 144.49 247.45Z" fill="#3B82F6"/>
<path opacity="0.3" d="M144.49 247.45C142.584 245.266 140.485 243.258 138.22 241.45C139.44 258.28 140.44 283.21 139.33 300.92C140.822 297.525 142.065 294.026 143.05 290.45C145.8 280.3 145.51 262.77 144.49 247.45Z" fill="black"/>
<path d="M104.6 348.52C104.65 348.52 100.11 351.52 100.11 351.52L87.4497 343.22L91.4497 339.91L104.6 348.52Z" fill="#3B82F6"/>
<path opacity="0.3" d="M104.6 348.52C104.65 348.52 100.11 351.52 100.11 351.52L87.4497 343.22L91.4497 339.91L104.6 348.52Z" fill="black"/>
<path d="M155.47 217.81C155.47 217.81 166.53 264.71 167.31 287.12C168.19 312.24 159.42 371.5 159.42 371.5H146.97C146.97 371.5 145.44 311.78 144.89 288.9C144.28 263.95 129.64 217.81 129.64 217.81H155.47Z" fill="#3B82F6"/>
<path opacity="0.1" d="M155.47 217.81C155.47 217.81 166.53 264.71 167.31 287.12C168.19 312.24 159.42 371.5 159.42 371.5H146.97C146.97 371.5 145.44 311.78 144.89 288.9C144.28 263.95 129.64 217.81 129.64 217.81H155.47Z" fill="black"/>
<path d="M161.81 366.55C161.87 366.55 161.11 371.71 161.11 371.71H145.97L145.56 367.1L161.81 366.55Z" fill="#3B82F6"/>
<path opacity="0.3" d="M161.81 366.55C161.87 366.55 161.11 371.71 161.11 371.71H145.97L145.56 367.1L161.81 366.55Z" fill="black"/>
<path d="M346.89 172.74C347.74 173.54 348.41 174.22 349.11 174.98C349.81 175.74 350.47 176.48 351.11 177.25C352.41 178.78 353.63 180.39 354.81 182.01C357.167 185.26 359.264 188.69 361.08 192.27L361.45 193C361.631 193.353 361.782 193.721 361.9 194.1C362.142 194.832 362.29 195.591 362.34 196.36C362.405 197.716 362.219 199.072 361.79 200.36C361.06 202.499 359.975 204.501 358.58 206.28C356.068 209.507 353.104 212.356 349.78 214.74L347.29 211.88C348.46 210.51 349.68 209.04 350.77 207.57C351.88 206.146 352.882 204.642 353.77 203.07C354.6 201.699 355.214 200.208 355.59 198.65C355.72 198.093 355.743 197.516 355.66 196.95C355.625 196.76 355.564 196.575 355.48 196.4C355.443 196.323 355.4 196.25 355.35 196.18L355.03 195.64C353.102 192.495 351.009 189.455 348.76 186.53C347.65 185.06 346.46 183.65 345.26 182.26C344.67 181.56 344.06 180.88 343.45 180.2C342.84 179.52 342.18 178.84 341.65 178.31L346.89 172.74Z" fill="#E4897B"/>
<path d="M348.25 211.04L340.78 209.82L344.69 216.36C344.69 216.36 349.5 216.19 350.87 213.36L348.25 211.04Z" fill="#E4897B"/>
<path d="M335.26 212.84L338.82 218.15L344.69 216.36L340.78 209.82L335.26 212.84Z" fill="#E4897B"/>
<path d="M347.89 381.73C347.382 381.774 346.875 381.635 346.46 381.34C346.335 381.222 346.242 381.073 346.191 380.908C346.141 380.743 346.133 380.568 346.17 380.4C346.177 380.293 346.214 380.189 346.275 380.101C346.337 380.013 346.422 379.944 346.52 379.9C347.39 379.51 349.67 380.97 349.93 381.14C349.96 381.158 349.983 381.186 349.995 381.218C350.008 381.251 350.01 381.286 350 381.32C349.996 381.354 349.982 381.386 349.958 381.412C349.935 381.437 349.904 381.454 349.87 381.46C349.222 381.624 348.558 381.715 347.89 381.73ZM346.89 380.18C346.817 380.169 346.743 380.169 346.67 380.18C346.626 380.201 346.589 380.233 346.562 380.274C346.536 380.314 346.521 380.362 346.52 380.41C346.494 380.522 346.496 380.638 346.528 380.749C346.559 380.859 346.619 380.959 346.7 381.04C347.08 381.38 348.06 381.43 349.37 381.17C348.62 380.674 347.776 380.337 346.89 380.18Z" fill="#3B82F6"/>
<path d="M349.89 381.45H349.8C349.09 381.04 347.72 379.45 347.89 378.58C347.922 378.443 347.998 378.32 348.106 378.23C348.215 378.14 348.349 378.087 348.49 378.08C348.625 378.061 348.763 378.072 348.893 378.114C349.023 378.155 349.141 378.226 349.24 378.32C350.06 379.04 350.07 381.2 350.07 381.32C350.068 381.35 350.059 381.38 350.043 381.406C350.028 381.432 350.006 381.454 349.98 381.47L349.89 381.45ZM348.61 378.45H348.53C348.31 378.45 348.26 378.57 348.24 378.66C348.14 379.17 348.99 380.39 349.7 380.96C349.717 380.121 349.477 379.297 349.01 378.6C348.95 378.544 348.879 378.502 348.801 378.476C348.724 378.45 348.641 378.441 348.56 378.45H348.61Z" fill="#3B82F6"/>
<path d="M313.81 381.73C313.172 381.791 312.532 381.628 312 381.27C311.88 381.164 311.788 381.03 311.73 380.88C311.673 380.731 311.652 380.569 311.67 380.41C311.677 380.313 311.708 380.219 311.76 380.137C311.813 380.054 311.885 379.987 311.97 379.94C312.9 379.42 315.88 380.94 316.22 381.13C316.252 381.15 316.276 381.179 316.292 381.212C316.308 381.246 316.314 381.283 316.31 381.32C316.305 381.355 316.288 381.387 316.263 381.413C316.238 381.438 316.205 381.454 316.17 381.46C315.394 381.625 314.604 381.715 313.81 381.73ZM312.48 380.18C312.366 380.172 312.252 380.197 312.15 380.25C312.114 380.267 312.084 380.294 312.063 380.328C312.042 380.361 312.03 380.4 312.03 380.44C312.015 380.544 312.025 380.65 312.06 380.75C312.095 380.849 312.153 380.938 312.23 381.01C312.69 381.42 313.92 381.49 315.58 381.21C314.612 380.694 313.564 380.346 312.48 380.18Z" fill="#3B82F6"/>
<path d="M316.14 381.45H316.06C315.17 381.05 313.4 379.45 313.54 378.58C313.54 378.38 313.72 378.13 314.21 378.08C314.389 378.061 314.57 378.078 314.742 378.132C314.914 378.185 315.073 378.273 315.21 378.39C316.15 379.17 316.33 381.19 316.33 381.28C316.334 381.311 316.33 381.342 316.317 381.37C316.305 381.398 316.285 381.422 316.26 381.44C316.222 381.456 316.18 381.46 316.14 381.45ZM314.35 378.45H314.24C313.92 378.45 313.9 378.61 313.89 378.65C313.81 379.16 315.01 380.43 315.89 380.98C315.803 380.125 315.454 379.318 314.89 378.67C314.738 378.541 314.549 378.464 314.35 378.45Z" fill="#3B82F6"/>
<path d="M327.96 149.75C327.67 154.27 326.89 163.45 330.36 165.99C330.36 165.99 329.73 170.62 321.54 171.7C312.54 172.87 316.65 167.79 316.65 167.79C321.42 165.97 320.81 162.34 319.51 159.02L327.96 149.75Z" fill="#E4897B"/>
<path d="M309.33 141.76C309.281 141.76 309.232 141.749 309.187 141.729C309.142 141.708 309.102 141.678 309.07 141.64C308.784 141.301 308.423 141.034 308.014 140.86C307.606 140.686 307.163 140.611 306.72 140.64C306.673 140.649 306.625 140.647 306.579 140.637C306.533 140.626 306.489 140.606 306.451 140.578C306.412 140.55 306.38 140.514 306.356 140.474C306.332 140.433 306.316 140.387 306.31 140.34C306.299 140.246 306.325 140.151 306.383 140.076C306.441 140.001 306.526 139.952 306.62 139.94C307.185 139.892 307.753 139.982 308.275 140.201C308.797 140.421 309.259 140.763 309.62 141.2C309.664 141.252 309.691 141.315 309.7 141.383C309.709 141.45 309.699 141.518 309.671 141.58C309.642 141.642 309.597 141.694 309.541 141.731C309.484 141.768 309.418 141.789 309.35 141.79L309.33 141.76Z" fill="#263238"/>
<path d="M307.77 146.19C307.415 147.624 306.867 149.004 306.14 150.29C306.474 150.47 306.843 150.574 307.222 150.594C307.6 150.615 307.979 150.552 308.33 150.41L307.77 146.19Z" fill="#DE5753"/>
<path d="M308.17 145.09C308.25 145.69 308 146.21 307.61 146.27C307.22 146.33 306.83 145.87 306.76 145.27C306.69 144.67 306.93 144.15 307.32 144.1C307.71 144.05 308.1 144.45 308.17 145.09Z" fill="#263238"/>
<path d="M307.5 144.11L306.01 143.88C306.01 143.88 306.89 144.91 307.5 144.11Z" fill="#263238"/>
<path d="M324.38 381.29H316.88L316.38 363.94H323.88L324.38 381.29Z" fill="#E4897B"/>
<path d="M358.43 381.29H350.93L348.52 363.94H356.02L358.43 381.29Z" fill="#E4897B"/>
<path d="M350.47 380.45H358.89C359.034 380.449 359.173 380.5 359.282 380.594C359.39 380.688 359.461 380.818 359.48 380.96L360.48 387.63C360.499 387.798 360.481 387.968 360.429 388.129C360.377 388.29 360.292 388.438 360.178 388.564C360.065 388.69 359.926 388.79 359.772 388.858C359.617 388.926 359.449 388.961 359.28 388.96C356.35 388.91 354.93 388.74 351.23 388.74C348.95 388.74 345.62 388.97 342.48 388.97C339.34 388.97 339.17 385.86 340.48 385.58C346.35 384.32 347.28 382.58 349.25 380.91C349.594 380.625 350.024 380.463 350.47 380.45Z" fill="#263238"/>
<path d="M316.63 380.45H325.04C325.185 380.448 325.325 380.499 325.436 380.593C325.546 380.687 325.619 380.817 325.64 380.96L326.64 387.63C326.659 387.798 326.641 387.968 326.589 388.129C326.537 388.29 326.452 388.438 326.338 388.564C326.225 388.69 326.086 388.79 325.932 388.858C325.777 388.926 325.609 388.961 325.44 388.96C322.51 388.91 321.09 388.74 317.39 388.74C315.11 388.74 310.39 388.97 307.25 388.97C304.11 388.97 303.94 385.86 305.25 385.58C311.12 384.32 313.43 382.58 315.41 380.91C315.754 380.625 316.184 380.463 316.63 380.45Z" fill="#263238"/>
<path d="M316.38 363.94L316.64 372.89H324.14L323.88 363.94H316.38Z" fill="#CE6F64"/>
<path d="M356.02 363.94H348.52L349.77 372.89H357.26L356.02 363.94Z" fill="#CE6F64"/>
<path d="M328.06 140.39C328.57 147.81 328.94 150.94 325.72 155.21C320.87 161.62 311.65 160.63 308.93 153.51C306.48 147.1 306.06 136.05 312.88 132.17C314.38 131.31 316.075 130.848 317.805 130.827C319.534 130.806 321.239 131.227 322.76 132.051C324.281 132.874 325.566 134.073 326.493 135.532C327.421 136.991 327.96 138.664 328.06 140.39Z" fill="#E4897B"/>
<path d="M332.38 147.28C336.54 149.6 339.63 143.88 339.63 143.88C339.63 143.88 332.17 144.69 332.84 140.25C333.72 134.36 329.5 127.2 318.92 128.12C318.33 128.17 317.77 128.24 317.22 128.33C316.113 127.805 314.86 127.669 313.666 127.945C312.472 128.221 311.405 128.892 310.64 129.85C307.64 130.1 303.59 133.68 306.34 138.41C306.533 137.867 306.832 137.367 307.22 136.94C307.45 139.71 309.87 144.11 312.89 144.4C313.54 148.19 311.02 152.58 311.89 156.54C313.18 162.25 322.81 163.54 322.81 163.54C322.478 162.827 322.355 162.035 322.454 161.254C322.553 160.474 322.871 159.737 323.37 159.13C329.91 162.13 334.22 159.2 334.22 159.2C329.76 157.54 331.11 154.58 331.11 154.58C332.65 155.264 334.395 155.324 335.979 154.748C337.562 154.171 338.86 153.004 339.6 151.49C338.119 151.56 336.649 151.2 335.367 150.453C334.086 149.706 333.049 148.604 332.38 147.28Z" fill="#263238"/>
<path d="M315.5 145.54C315.518 146.252 315.394 146.961 315.137 147.625C314.879 148.289 314.493 148.896 314 149.41C312.68 150.78 311.06 149.82 310.62 148.07C310.23 146.49 310.45 143.88 312.17 143.16C312.549 143.011 312.958 142.959 313.362 143.009C313.766 143.059 314.15 143.209 314.481 143.446C314.812 143.682 315.079 143.998 315.257 144.364C315.435 144.729 315.518 145.134 315.5 145.54Z" fill="#E4897B"/>
<path d="M321.73 214.67C321.73 214.67 323.63 264.03 328.15 293.01C331.79 316.43 347.96 371.15 347.96 371.15H358.18C358.18 371.15 349.75 318.3 347.9 295.15C343.22 236.56 355.37 223.98 343.9 211.78L321.73 214.67Z" fill="#263238"/>
<path d="M330.27 230.28C330.27 230.28 325.65 229.48 322.95 238.28C323.95 254.95 325.66 277.07 328.15 293.01C328.7 296.56 329.54 300.84 330.57 305.53C328.62 277.37 330.27 230.28 330.27 230.28Z" fill="#161F33"/>
<path d="M313.76 215.71C313.76 215.71 305.34 270.32 305.83 293.17C306.34 316.94 315.05 371.17 315.05 371.17H325.18C325.18 371.17 323.58 318.35 324.47 295.01C325.47 269.56 335.86 212.84 335.86 212.84L313.76 215.71Z" fill="#263238"/>
<path d="M359.66 371.63H346.07L345.01 367.07L359.56 367.17L359.66 371.63Z" fill="#3B82F6"/>
<path opacity="0.2" d="M359.66 371.63H346.07L345.01 367.07L359.56 367.17L359.66 371.63Z" fill="black"/>
<path d="M343.39 166C347.3 166.38 353.24 177.49 353.24 177.49L343.37 185.06C343.37 185.06 335.2 177.89 336.17 173.86C337.18 169.67 339.64 165.65 343.39 166Z" fill="#3B82F6"/>
<path opacity="0.1" d="M343.39 166C347.3 166.38 353.24 177.49 353.24 177.49L343.37 185.06C343.37 185.06 335.2 177.89 336.17 173.86C337.18 169.67 339.64 165.65 343.39 166Z" fill="black"/>
<path d="M340.44 170.78C339.443 170.511 338.411 170.397 337.38 170.44C336.855 171.533 336.45 172.68 336.17 173.86C335.17 177.86 343.37 185.06 343.37 185.06L344.1 184.5L340.44 170.78Z" fill="#3B82F6"/>
<path opacity="0.3" d="M340.44 170.78C339.443 170.511 338.411 170.397 337.38 170.44C336.855 171.533 336.45 172.68 336.17 173.86C335.17 177.86 343.37 185.06 343.37 185.06L344.1 184.5L340.44 170.78Z" fill="black"/>
<path d="M310.41 181.45C307.56 188.66 304.56 195.99 302.17 203.22C302.01 203.68 301.88 204.12 301.74 204.57L301.4 205.68C301.307 206.007 301.307 206.353 301.4 206.68C301.965 207.93 302.86 209.002 303.99 209.78C306.98 211.925 310.238 213.67 313.68 214.97L312.78 218.65C308.545 218.092 304.45 216.756 300.7 214.71C298.392 213.477 296.513 211.573 295.31 209.25C294.619 207.765 294.38 206.11 294.62 204.49C294.643 204.292 294.676 204.095 294.72 203.9L294.82 203.48L294.99 202.72C295.11 202.21 295.23 201.72 295.36 201.22C296.36 197.22 297.64 193.42 298.99 189.65C300.34 185.88 301.75 182.16 303.34 178.45L310.41 181.45Z" fill="#E4897B"/>
<path d="M304.34 171.33C304.34 171.33 300.96 173.04 313.76 215.71L343.94 211.77C341.82 199.55 340.82 191.98 343.39 166C339.062 165.69 334.718 165.69 330.39 166C325.783 166.268 321.201 166.87 316.68 167.8C310.89 169.09 304.34 171.33 304.34 171.33Z" fill="#3B82F6"/>
<path opacity="0.1" d="M304.34 171.33C304.34 171.33 300.96 173.04 313.76 215.71L343.94 211.77C341.82 199.55 340.82 191.98 343.39 166C339.062 165.69 334.718 165.69 330.39 166C325.783 166.268 321.201 166.87 316.68 167.8C310.89 169.09 304.34 171.33 304.34 171.33Z" fill="black"/>
<path d="M344.16 209.94L345.89 212.45C346.02 212.65 345.8 212.89 345.46 212.94L313.81 217.08C313.54 217.08 313.29 217.01 313.25 216.84L312.63 214.17C312.58 213.99 312.8 213.8 313.1 213.76L343.66 209.76C343.752 209.745 343.846 209.754 343.933 209.786C344.021 209.817 344.099 209.87 344.16 209.94Z" fill="#3B82F6"/>
<path opacity="0.2" d="M344.16 209.94L345.89 212.45C346.02 212.65 345.8 212.89 345.46 212.94L313.81 217.08C313.54 217.08 313.29 217.01 313.25 216.84L312.63 214.17C312.58 213.99 312.8 213.8 313.1 213.76L343.66 209.76C343.752 209.745 343.846 209.754 343.933 209.786C344.021 209.817 344.099 209.87 344.16 209.94Z" fill="black"/>
<path d="M340.5 213.89L341.32 213.78C341.48 213.78 341.59 213.66 341.57 213.56L340.73 210.1C340.699 210.041 340.647 209.995 340.585 209.969C340.523 209.944 340.454 209.94 340.39 209.96L339.57 210.06C339.4 210.06 339.29 210.18 339.32 210.29L340.16 213.74C340.18 213.85 340.34 213.91 340.5 213.89Z" fill="#263238"/>
<path d="M320.66 216.45L321.48 216.34C321.64 216.34 321.76 216.22 321.73 216.12L320.89 212.66C320.857 212.602 320.806 212.555 320.745 212.528C320.684 212.501 320.615 212.495 320.55 212.51L319.73 212.62C319.57 212.62 319.45 212.74 319.48 212.84L320.32 216.3C320.34 216.45 320.5 216.51 320.66 216.45Z" fill="#263238"/>
<path d="M305.75 185.81C306.58 189.67 307.75 194.56 309.46 200.75L309.83 185.06L305.75 185.81Z" fill="#3B82F6"/>
<path opacity="0.3" d="M305.75 185.81C306.58 189.67 307.75 194.56 309.46 200.75L309.83 185.06L305.75 185.81Z" fill="black"/>
<path d="M304.34 171.33C300.59 172.84 297.34 185.67 297.34 185.67L310.24 191.95C310.24 191.95 316.47 176.26 313.68 173.2C310.89 170.14 308.66 169.6 304.34 171.33Z" fill="#3B82F6"/>
<path opacity="0.1" d="M304.34 171.33C300.59 172.84 297.34 185.67 297.34 185.67L310.24 191.95C310.24 191.95 316.47 176.26 313.68 173.2C310.89 170.14 308.66 169.6 304.34 171.33Z" fill="black"/>
<path d="M326.91 371.63H313.32L312.26 367.07L327.39 367.17L326.91 371.63Z" fill="#3B82F6"/>
<path opacity="0.2" d="M326.91 371.63H313.32L312.26 367.07L327.39 367.17L326.91 371.63Z" fill="black"/>
<path d="M313.89 213.73L312.8 213.28C312.532 213.171 312.24 213.135 311.954 213.175C311.667 213.216 311.397 213.331 311.169 213.51C310.942 213.688 310.766 213.924 310.659 214.193C310.552 214.462 310.518 214.754 310.56 215.04L311.35 220.25C311.388 220.511 311.484 220.76 311.629 220.979C311.775 221.199 311.968 221.383 312.194 221.519C312.42 221.655 312.673 221.739 312.935 221.765C313.197 221.791 313.462 221.759 313.71 221.67C314.107 221.526 314.478 221.32 314.81 221.06C315.172 220.76 315.458 220.379 315.646 219.949C315.833 219.518 315.917 219.049 315.89 218.58L315.78 216.42C315.761 215.836 315.572 215.271 315.237 214.793C314.901 214.315 314.433 213.946 313.89 213.73Z" fill="#E4897B"/>
</svg>
