<svg width="388" height="382" viewBox="0 0 388 382" fill="none" xmlns="http://www.w3.org/2000/svg">
<path d="M194 381.56C301.082 381.56 387.89 376.492 387.89 370.24C387.89 363.988 301.082 358.92 194 358.92C86.9174 358.92 0.109863 363.988 0.109863 370.24C0.109863 376.492 86.9174 381.56 194 381.56Z" fill="#F5F5F5"/>
<path d="M363.8 99.82H265.7C260.525 99.82 256.33 104.015 256.33 109.19V135.87C256.33 141.045 260.525 145.24 265.7 145.24H363.8C368.975 145.24 373.17 141.045 373.17 135.87V109.19C373.17 104.015 368.975 99.82 363.8 99.82Z" fill="#3B82F6"/>
<path d="M344.34 107.48H267.71C266.804 107.48 266.07 108.214 266.07 109.12V110.92C266.07 111.826 266.804 112.56 267.71 112.56H344.34C345.246 112.56 345.98 111.826 345.98 110.92V109.12C345.98 108.214 345.246 107.48 344.34 107.48Z" fill="#3B82F6"/>
<path d="M320.07 119.72H267.71C266.804 119.72 266.07 120.454 266.07 121.36V123.16C266.07 124.066 266.804 124.8 267.71 124.8H320.07C320.976 124.8 321.71 124.066 321.71 123.16V121.36C321.71 120.454 320.976 119.72 320.07 119.72Z" fill="#3B82F6"/>
<path d="M306.03 131.96H267.71C266.804 131.96 266.07 132.694 266.07 133.6V135.4C266.07 136.306 266.804 137.04 267.71 137.04H306.03C306.936 137.04 307.67 136.306 307.67 135.4V133.6C307.67 132.694 306.936 131.96 306.03 131.96Z" fill="#3B82F6"/>
<path d="M353.52 131.96H315.2C314.294 131.96 313.56 132.694 313.56 133.6V135.4C313.56 136.306 314.294 137.04 315.2 137.04H353.52C354.426 137.04 355.16 136.306 355.16 135.4V133.6C355.16 132.694 354.426 131.96 353.52 131.96Z" fill="#3B82F6"/>
<g opacity="0.5">
<path d="M344.34 107.48H267.71C266.804 107.48 266.07 108.214 266.07 109.12V110.92C266.07 111.826 266.804 112.56 267.71 112.56H344.34C345.246 112.56 345.98 111.826 345.98 110.92V109.12C345.98 108.214 345.246 107.48 344.34 107.48Z" fill="white"/>
<path d="M320.07 119.72H267.71C266.804 119.72 266.07 120.454 266.07 121.36V123.16C266.07 124.066 266.804 124.8 267.71 124.8H320.07C320.976 124.8 321.71 124.066 321.71 123.16V121.36C321.71 120.454 320.976 119.72 320.07 119.72Z" fill="white"/>
<path d="M306.03 131.96H267.71C266.804 131.96 266.07 132.694 266.07 133.6V135.4C266.07 136.306 266.804 137.04 267.71 137.04H306.03C306.936 137.04 307.67 136.306 307.67 135.4V133.6C307.67 132.694 306.936 131.96 306.03 131.96Z" fill="white"/>
<path d="M353.52 131.96H315.2C314.294 131.96 313.56 132.694 313.56 133.6V135.4C313.56 136.306 314.294 137.04 315.2 137.04H353.52C354.425 137.04 355.16 136.306 355.16 135.4V133.6C355.16 132.694 354.425 131.96 353.52 131.96Z" fill="white"/>
</g>
<path d="M285.22 89.23H173.87C166.281 89.23 160.13 95.3816 160.13 102.97V142.09C160.13 149.678 166.281 155.83 173.87 155.83H285.22C292.808 155.83 298.96 149.678 298.96 142.09V102.97C298.96 95.3816 292.808 89.23 285.22 89.23Z" fill="#3B82F6"/>
<path d="M289.16 100.46H176.82C175.489 100.46 174.41 101.539 174.41 102.87V105.5C174.41 106.831 175.489 107.91 176.82 107.91H289.16C290.491 107.91 291.57 106.831 291.57 105.5V102.87C291.57 101.539 290.491 100.46 289.16 100.46Z" fill="#3B82F6"/>
<path d="M253.57 118.41H176.82C175.489 118.41 174.41 119.489 174.41 120.82V123.45C174.41 124.781 175.489 125.86 176.82 125.86H253.57C254.901 125.86 255.98 124.781 255.98 123.45V120.82C255.98 119.489 254.901 118.41 253.57 118.41Z" fill="#3B82F6"/>
<path d="M232.99 136.36H176.82C175.489 136.36 174.41 137.439 174.41 138.77V141.4C174.41 142.731 175.489 143.81 176.82 143.81H232.99C234.321 143.81 235.4 142.731 235.4 141.4V138.77C235.4 137.439 234.321 136.36 232.99 136.36Z" fill="#3B82F6"/>
<path d="M293.25 136.36H246.45C245.119 136.36 244.04 137.439 244.04 138.77V141.4C244.04 142.731 245.119 143.81 246.45 143.81H293.25C294.581 143.81 295.66 142.731 295.66 141.4V138.77C295.66 137.439 294.581 136.36 293.25 136.36Z" fill="#3B82F6"/>
<g opacity="0.5">
<path d="M289.16 100.46H176.82C175.489 100.46 174.41 101.539 174.41 102.87V105.5C174.41 106.831 175.489 107.91 176.82 107.91H289.16C290.491 107.91 291.57 106.831 291.57 105.5V102.87C291.57 101.539 290.491 100.46 289.16 100.46Z" fill="white"/>
<path d="M253.57 118.41H176.82C175.489 118.41 174.41 119.489 174.41 120.82V123.45C174.41 124.781 175.489 125.86 176.82 125.86H253.57C254.901 125.86 255.98 124.781 255.98 123.45V120.82C255.98 119.489 254.901 118.41 253.57 118.41Z" fill="white"/>
<path d="M232.99 136.36H176.82C175.489 136.36 174.41 137.439 174.41 138.77V141.4C174.41 142.731 175.489 143.81 176.82 143.81H232.99C234.321 143.81 235.4 142.731 235.4 141.4V138.77C235.4 137.439 234.321 136.36 232.99 136.36Z" fill="white"/>
<path d="M293.25 136.36H246.45C245.119 136.36 244.04 137.439 244.04 138.77V141.4C244.04 142.731 245.119 143.81 246.45 143.81H293.25C294.581 143.81 295.66 142.731 295.66 141.4V138.77C295.66 137.439 294.581 136.36 293.25 136.36Z" fill="white"/>
</g>
<path d="M215.99 167.9H162.36C158.814 167.9 155.94 170.774 155.94 174.32V254.66C155.94 258.206 158.814 261.08 162.36 261.08H215.99C219.536 261.08 222.41 258.206 222.41 254.66V174.32C222.41 170.774 219.536 167.9 215.99 167.9Z" fill="#3B82F6"/>
<path opacity="0.4" d="M215.99 167.9H162.36C158.814 167.9 155.94 170.774 155.94 174.32V254.66C155.94 258.206 158.814 261.08 162.36 261.08H215.99C219.536 261.08 222.41 258.206 222.41 254.66V174.32C222.41 170.774 219.536 167.9 215.99 167.9Z" fill="black"/>
<path d="M213.53 177.62H164.81C164.158 177.62 163.63 178.148 163.63 178.8V180.57C163.63 181.222 164.158 181.75 164.81 181.75H213.53C214.182 181.75 214.71 181.222 214.71 180.57V178.8C214.71 178.148 214.182 177.62 213.53 177.62Z" fill="#FAFAFA"/>
<path d="M198.02 187.56H164.81C164.158 187.56 163.63 188.088 163.63 188.74V190.51C163.63 191.162 164.158 191.69 164.81 191.69H198.02C198.672 191.69 199.2 191.162 199.2 190.51V188.74C199.2 188.088 198.672 187.56 198.02 187.56Z" fill="#FAFAFA"/>
<path d="M213.53 197.51H164.81C164.158 197.51 163.63 198.038 163.63 198.69V200.46C163.63 201.112 164.158 201.64 164.81 201.64H213.53C214.182 201.64 214.71 201.112 214.71 200.46V198.69C214.71 198.038 214.182 197.51 213.53 197.51Z" fill="#FAFAFA"/>
<path d="M182.92 207.45H164.81C164.158 207.45 163.63 207.978 163.63 208.63V210.4C163.63 211.052 164.158 211.58 164.81 211.58H182.92C183.572 211.58 184.1 211.052 184.1 210.4V208.63C184.1 207.978 183.572 207.45 182.92 207.45Z" fill="#FAFAFA"/>
<path d="M208.26 207.45H190.15C189.498 207.45 188.97 207.978 188.97 208.63V210.4C188.97 211.052 189.498 211.58 190.15 211.58H208.26C208.911 211.58 209.44 211.052 209.44 210.4V208.63C209.44 207.978 208.911 207.45 208.26 207.45Z" fill="#FAFAFA"/>
<path d="M213.53 217.4H164.81C164.158 217.4 163.63 217.928 163.63 218.58V220.35C163.63 221.002 164.158 221.53 164.81 221.53H213.53C214.182 221.53 214.71 221.002 214.71 220.35V218.58C214.71 217.928 214.182 217.4 213.53 217.4Z" fill="#FAFAFA"/>
<path d="M213.53 227.34H164.81C164.158 227.34 163.63 227.868 163.63 228.52V230.29C163.63 230.942 164.158 231.47 164.81 231.47H213.53C214.182 231.47 214.71 230.942 214.71 230.29V228.52C214.71 227.868 214.182 227.34 213.53 227.34Z" fill="#FAFAFA"/>
<path d="M204.89 237.29H164.81C164.158 237.29 163.63 237.818 163.63 238.47V240.24C163.63 240.892 164.158 241.42 164.81 241.42H204.89C205.542 241.42 206.07 240.892 206.07 240.24V238.47C206.07 237.818 205.542 237.29 204.89 237.29Z" fill="#FAFAFA"/>
<path d="M183.51 247.23H164.81C164.158 247.23 163.63 247.758 163.63 248.41V250.18C163.63 250.832 164.158 251.36 164.81 251.36H183.51C184.162 251.36 184.69 250.832 184.69 250.18V248.41C184.69 247.758 184.162 247.23 183.51 247.23Z" fill="#FAFAFA"/>
<path d="M230.5 167.33H156.11L189 193.5L239.43 212.5V176.24C239.425 173.875 238.481 171.609 236.807 169.938C235.133 168.268 232.865 167.33 230.5 167.33Z" fill="#3B82F6"/>
<path opacity="0.4" d="M230.5 167.33H156.11L189 193.5L239.43 212.5V176.24C239.425 173.875 238.481 171.609 236.807 169.938C235.133 168.268 232.865 167.33 230.5 167.33Z" fill="black"/>
<path d="M227.25 180.81H172.82C172.002 180.81 171.34 181.473 171.34 182.29V185.05C171.34 185.867 172.002 186.53 172.82 186.53H227.25C228.067 186.53 228.73 185.867 228.73 185.05V182.29C228.73 181.473 228.067 180.81 227.25 180.81Z" fill="#FAFAFA"/>
<path d="M359.15 238.17V185.85C359.15 181.84 355.899 178.59 351.89 178.59H261.04C257.03 178.59 253.78 181.84 253.78 185.85V238.17C253.78 242.18 257.03 245.43 261.04 245.43H351.89C355.899 245.43 359.15 242.18 359.15 238.17Z" fill="#3B82F6"/>
<path d="M375.74 221.59V169.27C375.74 165.26 372.489 162.01 368.48 162.01H277.63C273.62 162.01 270.37 165.26 270.37 169.27V221.59C270.37 225.6 273.62 228.85 277.63 228.85H368.48C372.489 228.85 375.74 225.6 375.74 221.59Z" fill="#3B82F6"/>
<path opacity="0.5" d="M375.74 221.59V169.27C375.74 165.26 372.489 162.01 368.48 162.01H277.63C273.62 162.01 270.37 165.26 270.37 169.27V221.59C270.37 225.6 273.62 228.85 277.63 228.85H368.48C372.489 228.85 375.74 225.6 375.74 221.59Z" fill="white"/>
<path d="M366.52 203.66V171.45C366.52 169.666 365.074 168.22 363.29 168.22H333.6C331.816 168.22 330.37 169.666 330.37 171.45V203.66C330.37 205.444 331.816 206.89 333.6 206.89H363.29C365.074 206.89 366.52 205.444 366.52 203.66Z" fill="#3B82F6"/>
<path opacity="0.7" d="M366.52 203.66V171.45C366.52 169.666 365.074 168.22 363.29 168.22H333.6C331.816 168.22 330.37 169.666 330.37 171.45V203.66C330.37 205.444 331.816 206.89 333.6 206.89H363.29C365.074 206.89 366.52 205.444 366.52 203.66Z" fill="white"/>
<path d="M324.71 219.24V194.56C324.71 193.19 323.6 192.08 322.23 192.08H299.48C298.11 192.08 297 193.19 297 194.56V219.24C297 220.61 298.11 221.72 299.48 221.72H322.23C323.6 221.72 324.71 220.61 324.71 219.24Z" fill="#3B82F6"/>
<path opacity="0.3" d="M324.71 219.24V194.56C324.71 193.19 323.6 192.08 322.23 192.08H299.48C298.11 192.08 297 193.19 297 194.56V219.24C297 220.61 298.11 221.72 299.48 221.72H322.23C323.6 221.72 324.71 220.61 324.71 219.24Z" fill="white"/>
<path d="M310.85 62.76V49.43C310.85 45.3541 307.546 42.05 303.47 42.05L59.3401 42.05C55.2642 42.05 51.9601 45.3541 51.9601 49.43V62.76C51.9601 66.8359 55.2642 70.14 59.3401 70.14L303.47 70.14C307.546 70.14 310.85 66.8359 310.85 62.76Z" fill="#3B82F6"/>
<path opacity="0.5" d="M310.85 62.76V49.43C310.85 45.3541 307.546 42.05 303.47 42.05L59.3401 42.05C55.2642 42.05 51.9601 45.3541 51.9601 49.43V62.76C51.9601 66.8359 55.2642 70.14 59.3401 70.14L303.47 70.14C307.546 70.14 310.85 66.8359 310.85 62.76Z" fill="white"/>
<path d="M264.66 74.84V65.17H194.41V74.84H264.66Z" fill="#3B82F6"/>
<path opacity="0.5" d="M264.66 74.84V65.17H194.41V74.84H264.66Z" fill="white"/>
<path d="M336.04 21.26V7.92999C336.04 3.85413 332.736 0.549988 328.66 0.549988L84.53 0.549988C80.4542 0.549988 77.1501 3.85413 77.1501 7.92999V21.26C77.1501 25.3359 80.4542 28.64 84.53 28.64L328.66 28.64C332.736 28.64 336.04 25.3359 336.04 21.26Z" fill="#3B82F6"/>
<path d="M74.3596 148.26C73.4796 150.26 72.5096 152.42 71.6596 154.53C70.8096 156.64 69.9296 158.81 69.1596 160.97C67.5797 165.181 66.3129 169.503 65.3696 173.9L65.0796 175.5L64.9796 176.1C64.9796 176.27 64.9796 176.49 64.9196 176.69C64.8816 177.664 64.9016 178.639 64.9796 179.61C65.1696 181.72 65.5096 183.98 65.9796 186.24C66.8196 190.77 67.8896 195.44 68.9796 200.04L63.8496 202.04C61.4582 197.681 59.4216 193.136 57.7596 188.45C56.8839 186.011 56.1756 183.515 55.6396 180.98C55.3393 179.577 55.152 178.153 55.0796 176.72C55.0796 176.32 55.0796 175.94 55.0796 175.51C55.0796 175.08 55.0796 174.6 55.1496 174.32L55.3496 172.32C55.6484 169.744 56.1059 167.189 56.7196 164.67C57.2796 162.17 57.9996 159.74 58.7196 157.34C59.4396 154.94 60.3396 152.58 61.2896 150.26C61.7596 149.1 62.2896 147.95 62.7496 146.8C63.2096 145.65 63.7496 144.55 64.3896 143.32L74.3596 148.26Z" fill="#E4897B"/>
<path d="M68.7096 198.69L72.6096 202.5L64.0996 206.5C64.0996 206.5 62.0396 202.89 63.4696 199.63L68.7096 198.69Z" fill="#E4897B"/>
<path d="M75.7599 208.17L68.5699 211.11L64.1099 206.46L72.6099 202.5L75.7599 208.17Z" fill="#E4897B"/>
<path opacity="0.4" d="M221.41 204.07C207.261 202.481 193.9 196.733 183.017 187.553C172.135 178.372 164.218 166.171 160.269 152.491C156.319 138.812 156.514 124.269 160.829 110.701C165.144 97.1322 173.384 85.1476 184.509 76.2619C195.634 67.3762 209.144 61.9884 223.33 60.7795C237.517 59.5707 251.744 62.5952 264.211 69.4705C276.679 76.3459 286.829 86.7635 293.377 99.4064C299.925 112.049 302.578 126.35 301 140.5C299.951 149.901 297.06 159.004 292.492 167.288C287.924 175.571 281.769 182.874 274.377 188.777C266.986 194.681 258.504 199.07 249.415 201.694C240.327 204.318 230.81 205.125 221.41 204.07Z" fill="#FAFAFA"/>
<path opacity="0.4" d="M273.79 75.79L164.29 163.28C163.83 162.28 163.38 161.28 162.96 160.28C160.215 153.75 158.459 146.848 157.75 139.8L252.33 64.23C260.095 66.8202 267.355 70.7309 273.79 75.79Z" fill="#FAFAFA"/>
<path opacity="0.4" d="M299.06 114.12L196.11 196.37C186.33 191.272 177.854 183.99 171.34 175.09L283.75 85.27C290.996 93.587 296.234 103.458 299.06 114.12Z" fill="#FAFAFA"/>
<path d="M148.39 105L147.44 104.68C149.085 99.825 151.153 95.1237 153.62 90.63L154.49 91.11C152.056 95.5534 150.015 100.201 148.39 105ZM160.53 81.66L159.72 81.07C167.938 69.9579 178.694 60.9714 191.09 54.86L191.54 55.76C179.284 61.8084 168.652 70.6987 160.53 81.69V81.66ZM270.12 57.13C266.852 55.3773 263.471 53.8439 260 52.54L260.36 51.6C263.865 52.9345 267.279 54.4978 270.58 56.28L270.12 57.13Z" fill="#3B82F6"/>
<path opacity="0.3" d="M148.39 105L147.44 104.68C149.085 99.825 151.153 95.1237 153.62 90.63L154.49 91.11C152.056 95.5534 150.015 100.201 148.39 105ZM160.53 81.66L159.72 81.07C167.938 69.9579 178.694 60.9714 191.09 54.86L191.54 55.76C179.284 61.8084 168.652 70.6987 160.53 81.69V81.66ZM270.12 57.13C266.852 55.3773 263.471 53.8439 260 52.54L260.36 51.6C263.865 52.9345 267.279 54.4978 270.58 56.28L270.12 57.13Z" fill="black"/>
<path d="M303.87 95.74C294.61 76.5353 278.315 61.6304 258.363 54.1151C238.411 46.5998 216.332 47.0506 196.704 55.3739C177.075 63.6973 161.402 79.2549 152.934 98.8215C144.466 118.388 143.852 140.463 151.22 160.47C144.54 162.81 137.94 165.32 131.38 167.91C121.92 171.663 112.546 175.583 103.26 179.67C93.9798 183.78 84.7398 187.97 75.5898 192.35C70.9998 194.5 66.4698 196.77 61.8998 198.97C59.5224 199.992 57.3684 201.469 55.5598 203.32C54.5811 204.345 53.7191 205.475 52.9898 206.69C52.0999 208.127 51.426 209.687 50.9898 211.32C50.2373 214.263 50.5627 217.378 51.9071 220.101C53.2515 222.825 55.5262 224.978 58.3198 226.17C59.8711 226.821 61.5078 227.245 63.1798 227.43C64.5919 227.59 66.0176 227.59 67.4298 227.43C69.996 227.119 72.4762 226.307 74.7298 225.04C79.2598 222.75 83.8198 220.54 88.3198 218.19C97.3198 213.6 106.32 208.81 115.21 203.95C124.1 199.09 133 194 141.68 188.78C147.68 185.15 153.74 181.44 159.68 177.56C171.086 195.567 188.983 208.495 209.661 213.666C230.34 218.836 252.215 215.854 270.754 205.335C289.294 194.816 303.075 177.569 309.244 157.166C315.413 136.762 313.496 114.768 303.89 95.74H303.87ZM258.41 191.27C246.788 197.006 233.727 199.168 220.877 197.481C208.028 195.795 195.967 190.336 186.219 181.795C176.472 173.254 169.476 162.014 166.116 149.498C162.756 136.981 163.183 123.749 167.343 111.475C171.503 99.2004 179.209 88.4353 189.486 80.5405C199.764 72.6457 212.152 67.9758 225.084 67.1212C238.016 66.2665 250.91 69.2656 262.138 75.7391C273.365 82.2127 282.421 91.87 288.16 103.49C291.971 111.207 294.225 119.599 294.792 128.187C295.36 136.775 294.23 145.391 291.468 153.542C288.705 161.694 284.364 169.221 278.692 175.695C273.019 182.168 266.128 187.46 258.41 191.27Z" fill="#3B82F6"/>
<path opacity="0.3" d="M303.87 95.74C294.61 76.5353 278.315 61.6304 258.363 54.1151C238.411 46.5998 216.332 47.0506 196.704 55.3739C177.075 63.6973 161.402 79.2549 152.934 98.8215C144.466 118.388 143.852 140.463 151.22 160.47C144.54 162.81 137.94 165.32 131.38 167.91C121.92 171.663 112.546 175.583 103.26 179.67C93.9798 183.78 84.7398 187.97 75.5898 192.35C70.9998 194.5 66.4698 196.77 61.8998 198.97C59.5224 199.992 57.3684 201.469 55.5598 203.32C54.5811 204.345 53.7191 205.475 52.9898 206.69C52.0999 208.127 51.426 209.687 50.9898 211.32C50.2373 214.263 50.5627 217.378 51.9071 220.101C53.2515 222.825 55.5262 224.978 58.3198 226.17C59.8711 226.821 61.5078 227.245 63.1798 227.43C64.5919 227.59 66.0176 227.59 67.4298 227.43C69.996 227.119 72.4762 226.307 74.7298 225.04C79.2598 222.75 83.8198 220.54 88.3198 218.19C97.3198 213.6 106.32 208.81 115.21 203.95C124.1 199.09 133 194 141.68 188.78C147.68 185.15 153.74 181.44 159.68 177.56C171.086 195.567 188.983 208.495 209.661 213.666C230.34 218.836 252.215 215.854 270.754 205.335C289.294 194.816 303.075 177.569 309.244 157.166C315.413 136.762 313.496 114.768 303.89 95.74H303.87ZM258.41 191.27C246.788 197.006 233.727 199.168 220.877 197.481C208.028 195.795 195.967 190.336 186.219 181.795C176.472 173.254 169.476 162.014 166.116 149.498C162.756 136.981 163.183 123.749 167.343 111.475C171.503 99.2004 179.209 88.4353 189.486 80.5405C199.764 72.6457 212.152 67.9758 225.084 67.1212C238.016 66.2665 250.91 69.2656 262.138 75.7391C273.365 82.2127 282.421 91.87 288.16 103.49C291.971 111.207 294.225 119.599 294.792 128.187C295.36 136.775 294.23 145.391 291.468 153.542C288.705 161.694 284.364 169.221 278.692 175.695C273.019 182.168 266.128 187.46 258.41 191.27Z" fill="black"/>
<path d="M102 112.55C102 113.14 102.31 113.62 102.7 113.62C103.09 113.62 103.4 113.14 103.4 112.55C103.4 111.96 103.09 111.48 102.7 111.48C102.31 111.48 102 112 102 112.55Z" fill="#263238"/>
<path d="M102.28 113.62C102.988 115.431 103.94 117.137 105.11 118.69C104.705 118.979 104.242 119.177 103.753 119.268C103.265 119.36 102.762 119.343 102.28 119.22V113.62Z" fill="#DE5753"/>
<path d="M99.9298 109.26C99.8741 109.26 99.819 109.247 99.7688 109.223C99.7186 109.199 99.6745 109.164 99.6398 109.12C99.5877 109.044 99.567 108.95 99.5819 108.859C99.5967 108.768 99.6462 108.686 99.7198 108.63C100.16 108.296 100.675 108.073 101.22 107.981C101.765 107.889 102.324 107.93 102.85 108.1C102.897 108.113 102.941 108.135 102.979 108.166C103.017 108.197 103.048 108.236 103.07 108.28C103.092 108.323 103.105 108.371 103.107 108.42C103.11 108.469 103.102 108.518 103.085 108.563C103.067 108.609 103.04 108.65 103.005 108.685C102.971 108.72 102.929 108.747 102.884 108.764C102.838 108.782 102.789 108.79 102.74 108.787C102.691 108.785 102.644 108.772 102.6 108.75C102.182 108.622 101.74 108.596 101.31 108.674C100.88 108.753 100.476 108.933 100.13 109.2C100.071 109.239 100.001 109.26 99.9298 109.26Z" fill="#263238"/>
<path d="M81.7997 117C82.7997 122.37 83.8996 132.22 80.1396 135.81C80.1396 135.81 81.6097 141.26 91.5997 141.26C102.6 141.26 96.8396 135.81 96.8396 135.81C90.8396 134.37 91.0097 129.93 92.0497 125.75L81.7997 117Z" fill="#E4897B"/>
<path d="M75.6498 138.64C76.8398 136.79 74.8398 132.3 74.8398 132.3C74.8398 132.3 92.5198 127.85 99.7498 134.68C101.25 136.09 99.5898 138.17 99.5898 138.17L75.6498 138.64Z" fill="#3B82F6"/>
<path opacity="0.1" d="M75.6498 138.64C76.8398 136.79 74.8398 132.3 74.8398 132.3C74.8398 132.3 92.5198 127.85 99.7498 134.68C101.25 136.09 99.5898 138.17 99.5898 138.17L75.6498 138.64Z" fill="black"/>
<path d="M46.3998 342.67C45.4698 342.67 43.9798 341.12 43.5398 340.54C43.5208 340.512 43.5107 340.479 43.5107 340.445C43.5107 340.411 43.5208 340.378 43.5398 340.35C43.5559 340.322 43.5793 340.299 43.6074 340.283C43.6356 340.267 43.6675 340.259 43.6998 340.26C43.8098 340.26 46.2598 340.48 46.9298 341.35C47.0026 341.442 47.0547 341.548 47.0823 341.662C47.1099 341.776 47.1124 341.895 47.0898 342.01C47.0811 342.159 47.0264 342.301 46.9332 342.418C46.8401 342.534 46.7131 342.619 46.5698 342.66L46.3998 342.67ZM44.0798 340.67C44.8098 341.51 45.9798 342.46 46.4798 342.34C46.4798 342.34 46.6798 342.29 46.7398 341.97C46.7529 341.903 46.7508 341.834 46.7334 341.768C46.7161 341.703 46.6841 341.642 46.6398 341.59C45.899 341.029 45.0076 340.702 44.0798 340.65V340.67Z" fill="#3B82F6"/>
<path d="M44.1897 340.65C44.0101 340.668 43.8292 340.668 43.6497 340.65C43.6181 340.648 43.5879 340.636 43.563 340.616C43.538 340.597 43.5195 340.57 43.5097 340.54C43.4956 340.512 43.4883 340.481 43.4883 340.45C43.4883 340.419 43.4956 340.388 43.5097 340.36C43.5797 340.3 45.0497 338.77 46.1597 338.77C46.2925 338.767 46.4245 338.792 46.5468 338.844C46.6692 338.896 46.7793 338.973 46.8697 339.07C46.9692 339.153 47.0374 339.268 47.0628 339.395C47.0883 339.523 47.0695 339.655 47.0097 339.77C46.7197 340.33 45.1897 340.65 44.1897 340.65ZM44.0597 340.3C45.0597 340.3 46.5097 339.99 46.7497 339.55C46.7497 339.55 46.8197 339.42 46.6597 339.26C46.6015 339.197 46.5301 339.147 46.4507 339.114C46.3712 339.081 46.2856 339.066 46.1997 339.07C45.3799 339.258 44.6349 339.686 44.0597 340.3Z" fill="#3B82F6"/>
<path d="M112.39 365.37C111.632 365.365 110.876 365.295 110.13 365.16C110.093 365.153 110.059 365.133 110.036 365.104C110.012 365.074 109.999 365.038 110 365C109.994 364.965 109.999 364.93 110.013 364.898C110.027 364.866 110.05 364.839 110.08 364.82C110.19 364.76 112.75 363.29 113.98 363.63C114.094 363.656 114.202 363.705 114.296 363.773C114.391 363.842 114.47 363.929 114.53 364.03C114.608 364.141 114.65 364.274 114.65 364.41C114.65 364.546 114.608 364.679 114.53 364.79C114.24 365.24 113.33 365.37 112.39 365.37ZM110.7 364.9C112.06 365.1 113.92 365.09 114.26 364.61C114.31 364.55 114.35 364.44 114.26 364.23C114.183 364.106 114.061 364.016 113.92 363.98C113.14 363.78 111.59 364.44 110.7 364.9Z" fill="#3B82F6"/>
<path d="M110.17 365.17C110.137 365.179 110.103 365.179 110.07 365.17C110.042 365.152 110.021 365.126 110.008 365.096C109.996 365.066 109.993 365.032 110 365C110.068 363.959 110.467 362.967 111.14 362.17C111.276 362.053 111.436 361.966 111.608 361.916C111.781 361.866 111.962 361.854 112.14 361.88C112.62 361.88 112.76 362.17 112.79 362.36C112.92 363.19 111.17 364.78 110.28 365.18L110.17 365.17ZM111.96 362.17C111.74 362.168 111.527 362.247 111.36 362.39C110.795 363.022 110.444 363.816 110.36 364.66C111.26 364.11 112.46 362.87 112.36 362.37C112.36 362.37 112.36 362.2 112.02 362.17H111.96Z" fill="#3B82F6"/>
<path d="M102.09 364.99H109.44L110.17 347.98H102.82L102.09 364.99Z" fill="#E4897B"/>
<path d="M36.6396 335.79L42.7796 339.81L56.3396 328.36L50.1897 324.33L36.6396 335.79Z" fill="#E4897B"/>
<path d="M43.7898 339.43L37.4098 334.2C37.2971 334.107 37.1557 334.057 37.0098 334.057C36.8639 334.057 36.7225 334.107 36.6098 334.2L31.3498 338.33C31.2227 338.431 31.1201 338.56 31.0496 338.706C30.979 338.852 30.9424 339.013 30.9424 339.175C30.9424 339.337 30.979 339.498 31.0496 339.644C31.1201 339.79 31.2227 339.919 31.3498 340.02C33.6098 341.81 34.7998 342.57 37.6098 344.87C39.3398 346.28 43.6098 350.6 46.0198 352.55C48.4298 354.5 50.6398 352.4 49.8398 351.39C46.2498 346.84 44.8398 342.95 44.4298 340.54C44.3589 340.104 44.1313 339.71 43.7898 339.43Z" fill="#263238"/>
<path d="M109.39 364.14H101.39C101.244 364.141 101.103 364.19 100.988 364.281C100.874 364.372 100.794 364.498 100.76 364.64L99.31 371.17C99.2736 371.328 99.2736 371.493 99.3102 371.651C99.3467 371.809 99.4188 371.957 99.5209 372.083C99.6231 372.209 99.7526 372.311 99.8997 372.38C100.047 372.448 100.208 372.483 100.37 372.48C103.26 372.43 107.44 372.26 111.08 372.26C115.33 372.26 119.01 372.49 123.99 372.49C126.99 372.49 127.85 369.44 126.58 369.17C120.84 367.91 116.14 367.78 111.18 364.71C110.648 364.358 110.028 364.16 109.39 364.14Z" fill="#263238"/>
<path d="M65.6597 138C59.2897 141 55.6597 161.1 55.6597 161.1L71.2297 167.31C73.5087 161.745 75.351 156.011 76.7397 150.16C78.8797 140.9 72.1797 134.9 65.6597 138Z" fill="#263238"/>
<path d="M73.92 149.33C70.07 153.23 68.31 160.87 67.54 165.84L71.27 167.33C73.4843 161.923 75.2894 156.357 76.67 150.68C76.34 148.56 75.52 147.71 73.92 149.33Z" fill="#203048"/>
<path d="M108.14 137.86C108.14 137.86 115.96 146.7 108.58 201.36H69.2897C69.0197 195.36 72.8097 165.91 66.9897 137.49C71.3318 136.648 75.7247 136.094 80.1397 135.83C85.7015 135.5 91.278 135.5 96.8397 135.83C100.653 136.214 104.431 136.892 108.14 137.86Z" fill="#263238"/>
<path d="M111.73 159.08L105.11 147.67C103.832 152.994 103.31 158.471 103.56 163.94C103.74 167.86 107.33 182.38 110.56 184.5C111.417 176.055 111.807 167.568 111.73 159.08Z" fill="#203048"/>
<path d="M112.65 145.67C113.65 150.53 114.65 155.51 115.72 160.39C116.79 165.27 117.9 170.17 119.19 174.9C119.52 176.07 119.83 177.27 120.19 178.39L120.46 179.25L120.59 179.68V179.63C120.52 179.54 120.44 179.53 120.5 179.63C120.911 180.079 121.436 180.407 122.02 180.58C122.965 180.932 123.939 181.203 124.93 181.39C129.658 182.139 134.445 182.451 139.23 182.32L140.18 187.76C138.84 188.19 137.59 188.5 136.27 188.81C134.95 189.12 133.65 189.38 132.32 189.58C129.568 190.038 126.778 190.226 123.99 190.14C122.44 190.098 120.899 189.897 119.39 189.54C117.472 189.12 115.669 188.284 114.11 187.09C113.092 186.268 112.251 185.247 111.64 184.09C111.48 183.79 111.34 183.45 111.21 183.16L111.03 182.69L110.66 181.69C110.15 180.42 109.73 179.17 109.27 177.92C107.58 172.92 106.17 167.87 104.93 162.83C103.69 157.79 102.62 152.76 101.73 147.59L112.65 145.67Z" fill="#E4897B"/>
<path d="M98.33 143.22C96.26 149.93 104.65 169.94 104.65 169.94L121.36 165.74C121.36 165.74 120.72 155.34 116.91 147.09C111.17 134.65 100.81 135.17 98.33 143.22Z" fill="#263238"/>
<path d="M139.09 182.32L147.41 182.11L143.41 190.77C143.41 190.77 140.02 191.22 137.24 186.65L134.31 183.15L137.68 182.48C138.143 182.382 138.616 182.329 139.09 182.32Z" fill="#E4897B"/>
<path d="M152.66 183.72L147.9 190.9L143.41 190.77L147.41 182.11L152.66 183.72Z" fill="#E4897B"/>
<path d="M110.17 347.98L109.79 356.75H102.44L102.82 347.98H110.17Z" fill="#CE6F64"/>
<path d="M50.1897 324.33L56.3397 328.36L49.3397 334.26L43.1997 330.24L50.1897 324.33Z" fill="#CE6F64"/>
<path d="M82.2598 111.28C82.6998 118.55 82.5898 122.84 86.2598 126.57C91.7798 132.2 100.77 128.87 102.51 121.57C104.08 115.03 103.1 104.23 95.9798 101.33C94.4087 100.696 92.7024 100.471 91.0208 100.677C89.3392 100.883 87.7375 101.513 86.366 102.508C84.9945 103.502 83.8982 104.829 83.18 106.364C82.4617 107.898 82.1451 109.59 82.2598 111.28Z" fill="#E4897B"/>
<path d="M73.7 110C75.51 116.63 79.77 124.27 85.28 124.76C92.12 125.36 95.21 118.29 96.11 110.99C100.21 108.18 98.06 105.09 102.17 104.7C107.45 104.2 105.76 94.54 98.81 92.99C98.81 92.99 101.14 97.34 96.25 95.14C91.5995 92.9299 86.433 92.0342 81.31 92.55C81.31 92.55 87.55 95.67 81.45 97.06C75.35 98.45 73.53 102.21 76.34 104.48C76.34 104.49 72.51 105.64 73.7 110Z" fill="#263238"/>
<path d="M91.9397 112.49C92.074 114.297 92.8018 116.009 94.0097 117.36C95.6097 119.13 97.2797 118.03 97.5597 115.88C97.8197 113.95 97.2897 110.7 95.3297 109.72C93.3697 108.74 91.8097 110.31 91.9397 112.49Z" fill="#E4897B"/>
<path d="M94.6397 201.36C94.6397 201.36 101.8 253.21 96.1597 273.99C87.2197 306.89 53.0397 334.66 53.0397 334.66L41.4497 327.06C41.4497 327.06 70.5597 303.61 74.1197 276.06C77.3197 251.33 69.2897 221.42 69.2897 201.35L94.6397 201.36Z" fill="#3B82F6"/>
<path opacity="0.1" d="M94.6397 201.36C94.6397 201.36 101.8 253.21 96.1597 273.99C87.2197 306.89 53.0397 334.66 53.0397 334.66L41.4497 327.06C41.4497 327.06 70.5597 303.61 74.1197 276.06C77.3197 251.33 69.2897 221.42 69.2897 201.35L94.6397 201.36Z" fill="black"/>
<path d="M97.5996 231C95.6935 228.816 93.595 226.808 91.3296 225C92.5496 241.83 93.5496 266.76 92.4396 284.47C93.932 281.075 95.1753 277.576 96.1596 274C98.9096 263.85 98.6196 246.32 97.5996 231Z" fill="#3B82F6"/>
<path opacity="0.3" d="M97.5996 231C95.6935 228.816 93.595 226.808 91.3296 225C92.5496 241.83 93.5496 266.76 92.4396 284.47C93.932 281.075 95.1753 277.576 96.1596 274C98.9096 263.85 98.6196 246.32 97.5996 231Z" fill="black"/>
<path d="M57.7096 332.07C57.7596 332.07 53.2196 335.07 53.2196 335.07L40.5596 326.77L44.5596 323.46L57.7096 332.07Z" fill="#3B82F6"/>
<path opacity="0.3" d="M57.7096 332.07C57.7596 332.07 53.2196 335.07 53.2196 335.07L40.5596 326.77L44.5596 323.46L57.7096 332.07Z" fill="black"/>
<path d="M108.58 201.36C108.58 201.36 119.64 248.26 120.42 270.67C121.3 295.79 112.53 355.05 112.53 355.05H100.08C100.08 355.05 98.55 295.33 98 272.45C97.39 247.5 82.75 201.36 82.75 201.36H108.58Z" fill="#3B82F6"/>
<path opacity="0.1" d="M108.58 201.36C108.58 201.36 119.64 248.26 120.42 270.67C121.3 295.79 112.53 355.05 112.53 355.05H100.08C100.08 355.05 98.55 295.33 98 272.45C97.39 247.5 82.75 201.36 82.75 201.36H108.58Z" fill="black"/>
<path d="M114.92 350.1C114.98 350.1 114.22 355.26 114.22 355.26H99.0799L98.6699 350.65L114.92 350.1Z" fill="#3B82F6"/>
<path opacity="0.3" d="M114.92 350.1C114.98 350.1 114.22 355.26 114.22 355.26H99.0799L98.6699 350.65L114.92 350.1Z" fill="black"/>
<path d="M300 156.29C300.85 157.09 301.52 157.77 302.22 158.53C302.92 159.29 303.58 160.03 304.22 160.8C305.52 162.33 306.74 163.94 307.92 165.56C310.277 168.81 312.373 172.24 314.19 175.82L314.56 176.55C314.74 176.903 314.891 177.271 315.01 177.65C315.251 178.382 315.399 179.141 315.45 179.91C315.515 181.266 315.328 182.622 314.9 183.91C314.169 186.049 313.084 188.051 311.69 189.83C309.177 193.057 306.213 195.906 302.89 198.29L300.4 195.43C301.57 194.06 302.79 192.59 303.88 191.12C304.989 189.696 305.992 188.192 306.88 186.62C307.709 185.249 308.323 183.758 308.7 182.2C308.829 181.643 308.853 181.066 308.77 180.5C308.734 180.31 308.673 180.125 308.59 179.95C308.552 179.873 308.509 179.8 308.46 179.73L308.14 179.19C306.211 176.045 304.118 173.004 301.87 170.08C300.76 168.61 299.57 167.2 298.37 165.81C297.78 165.11 297.17 164.43 296.56 163.75C295.95 163.07 295.29 162.39 294.76 161.86L300 156.29Z" fill="#E4897B"/>
<path d="M301.36 194.59L293.89 193.37L297.8 199.91C297.8 199.91 302.61 199.74 303.98 196.91L301.36 194.59Z" fill="#E4897B"/>
<path d="M288.37 196.39L291.93 201.7L297.8 199.91L293.89 193.37L288.37 196.39Z" fill="#E4897B"/>
<path d="M301 365.28C300.492 365.324 299.985 365.185 299.57 364.89C299.445 364.772 299.352 364.623 299.301 364.458C299.25 364.293 299.243 364.118 299.28 363.95C299.287 363.843 299.323 363.739 299.385 363.651C299.447 363.563 299.531 363.494 299.63 363.45C300.5 363.06 302.78 364.52 303.04 364.69C303.07 364.708 303.092 364.736 303.105 364.768C303.118 364.801 303.119 364.836 303.11 364.87C303.106 364.904 303.091 364.936 303.068 364.962C303.045 364.987 303.014 365.004 302.98 365.01C302.332 365.174 301.668 365.265 301 365.28ZM300 363.73C299.927 363.719 299.853 363.719 299.78 363.73C299.736 363.751 299.699 363.783 299.672 363.824C299.645 363.864 299.631 363.911 299.63 363.96C299.603 364.072 299.606 364.188 299.638 364.299C299.669 364.409 299.728 364.509 299.81 364.59C300.19 364.93 301.17 364.98 302.48 364.72C301.729 364.224 300.885 363.887 300 363.73Z" fill="#3B82F6"/>
<path d="M303 365H302.91C302.2 364.59 300.83 363 301 362.13C301.032 361.993 301.108 361.87 301.216 361.78C301.325 361.69 301.459 361.637 301.6 361.63C301.735 361.611 301.873 361.622 302.002 361.664C302.132 361.705 302.251 361.776 302.35 361.87C303.17 362.59 303.18 364.75 303.18 364.87C303.178 364.9 303.169 364.93 303.153 364.956C303.137 364.982 303.116 365.004 303.09 365.02L303 365ZM301.72 362H301.64C301.42 362 301.37 362.12 301.35 362.21C301.25 362.72 302.1 363.94 302.81 364.51C302.827 363.671 302.586 362.847 302.12 362.15C302.06 362.094 301.989 362.052 301.911 362.026C301.834 362 301.751 361.991 301.67 362H301.72Z" fill="#3B82F6"/>
<path d="M266.92 365.28C266.282 365.341 265.642 365.178 265.11 364.82C264.99 364.714 264.898 364.58 264.84 364.43C264.783 364.281 264.762 364.119 264.78 363.96C264.787 363.863 264.818 363.769 264.87 363.687C264.922 363.604 264.995 363.537 265.08 363.49C266.01 362.97 268.99 364.49 269.33 364.68C269.361 364.7 269.386 364.729 269.402 364.762C269.418 364.796 269.424 364.833 269.42 364.87C269.414 364.905 269.398 364.937 269.373 364.963C269.348 364.988 269.315 365.004 269.28 365.01C268.504 365.175 267.714 365.265 266.92 365.28ZM265.59 363.73C265.476 363.722 265.362 363.747 265.26 363.8C265.224 363.817 265.194 363.844 265.173 363.878C265.151 363.911 265.14 363.95 265.14 363.99C265.125 364.094 265.135 364.2 265.17 364.3C265.205 364.399 265.263 364.488 265.34 364.56C265.8 364.97 267.03 365.04 268.69 364.76C267.722 364.244 266.674 363.896 265.59 363.73Z" fill="#3B82F6"/>
<path d="M269.25 365H269.17C268.28 364.6 266.51 363 266.65 362.13C266.65 361.93 266.83 361.68 267.32 361.63C267.499 361.611 267.68 361.628 267.852 361.682C268.024 361.735 268.183 361.823 268.32 361.94C269.26 362.72 269.44 364.74 269.44 364.83C269.444 364.861 269.439 364.892 269.427 364.92C269.415 364.948 269.395 364.972 269.37 364.99C269.332 365.006 269.29 365.01 269.25 365ZM267.46 362H267.35C267.03 362 267.01 362.16 267 362.2C266.92 362.71 268.12 363.98 269 364.53C268.913 363.675 268.564 362.868 268 362.22C267.848 362.091 267.659 362.014 267.46 362Z" fill="#3B82F6"/>
<path d="M281.07 133.3C280.78 137.82 280 147 283.47 149.54C283.47 149.54 282.84 154.17 274.65 155.25C265.65 156.42 269.76 151.34 269.76 151.34C274.53 149.52 273.92 145.89 272.62 142.57L281.07 133.3Z" fill="#E4897B"/>
<path d="M262.44 125.31C262.391 125.31 262.342 125.299 262.297 125.279C262.252 125.258 262.212 125.228 262.18 125.19C261.894 124.851 261.532 124.584 261.124 124.41C260.716 124.236 260.273 124.161 259.83 124.19C259.783 124.199 259.735 124.197 259.689 124.187C259.643 124.176 259.599 124.156 259.561 124.128C259.522 124.1 259.49 124.064 259.466 124.024C259.442 123.983 259.426 123.937 259.42 123.89C259.409 123.796 259.435 123.701 259.493 123.626C259.551 123.551 259.636 123.502 259.73 123.49C260.295 123.442 260.862 123.532 261.385 123.751C261.907 123.971 262.369 124.313 262.73 124.75C262.773 124.802 262.801 124.865 262.81 124.933C262.819 125 262.809 125.068 262.781 125.13C262.752 125.192 262.707 125.244 262.651 125.281C262.594 125.318 262.528 125.339 262.46 125.34L262.44 125.31Z" fill="#263238"/>
<path d="M260.88 129.74C260.525 131.174 259.977 132.554 259.25 133.84C259.584 134.02 259.953 134.124 260.332 134.144C260.71 134.165 261.089 134.102 261.44 133.96L260.88 129.74Z" fill="#DE5753"/>
<path d="M261.28 128.64C261.36 129.24 261.11 129.76 260.72 129.82C260.33 129.88 259.94 129.42 259.87 128.82C259.8 128.22 260.04 127.7 260.43 127.65C260.82 127.6 261.21 128 261.28 128.64Z" fill="#263238"/>
<path d="M260.61 127.66L259.12 127.43C259.12 127.43 260 128.46 260.61 127.66Z" fill="#263238"/>
<path d="M277.49 364.84H269.99L269.49 347.49H276.99L277.49 364.84Z" fill="#E4897B"/>
<path d="M311.54 364.84H304.04L301.63 347.49H309.13L311.54 364.84Z" fill="#E4897B"/>
<path d="M303.58 364H312C312.144 363.999 312.283 364.05 312.391 364.144C312.5 364.238 312.571 364.368 312.59 364.51L313.59 371.18C313.608 371.348 313.591 371.518 313.539 371.679C313.487 371.84 313.402 371.988 313.288 372.114C313.175 372.239 313.036 372.34 312.882 372.408C312.727 372.476 312.559 372.511 312.39 372.51C309.46 372.46 308.04 372.29 304.34 372.29C302.06 372.29 298.73 372.52 295.59 372.52C292.45 372.52 292.28 369.41 293.59 369.13C299.46 367.87 300.39 366.13 302.36 364.46C302.704 364.175 303.134 364.013 303.58 364Z" fill="#263238"/>
<path d="M269.74 364H278.15C278.295 363.998 278.435 364.049 278.546 364.143C278.656 364.237 278.729 364.367 278.75 364.51L279.75 371.18C279.769 371.348 279.751 371.518 279.699 371.679C279.647 371.84 279.562 371.988 279.448 372.114C279.335 372.24 279.196 372.34 279.042 372.408C278.887 372.476 278.719 372.511 278.55 372.51C275.62 372.46 274.2 372.29 270.5 372.29C268.22 372.29 263.5 372.52 260.36 372.52C257.22 372.52 257.05 369.41 258.36 369.13C264.23 367.87 266.54 366.13 268.52 364.46C268.864 364.175 269.294 364.013 269.74 364Z" fill="#263238"/>
<path d="M269.49 347.49L269.75 356.44H277.25L276.99 347.49H269.49Z" fill="#CE6F64"/>
<path d="M309.13 347.49H301.63L302.88 356.44H310.37L309.13 347.49Z" fill="#CE6F64"/>
<path d="M281.17 123.94C281.68 131.36 282.05 134.49 278.83 138.76C273.98 145.17 264.76 144.18 262.04 137.06C259.59 130.65 259.17 119.6 265.99 115.72C267.49 114.86 269.185 114.398 270.914 114.377C272.644 114.356 274.349 114.777 275.87 115.601C277.391 116.424 278.676 117.623 279.603 119.082C280.531 120.541 281.07 122.214 281.17 123.94Z" fill="#E4897B"/>
<path d="M285.49 130.83C289.65 133.15 292.74 127.43 292.74 127.43C292.74 127.43 285.28 128.24 285.95 123.8C286.83 117.91 282.61 110.75 272.03 111.67C271.44 111.72 270.88 111.79 270.33 111.88C269.223 111.355 267.97 111.219 266.776 111.495C265.581 111.771 264.515 112.442 263.75 113.4C260.75 113.65 256.7 117.23 259.45 121.96C259.643 121.417 259.942 120.917 260.33 120.49C260.56 123.26 262.98 127.66 266 127.95C266.65 131.74 264.13 136.13 265 140.09C266.29 145.8 275.92 147.09 275.92 147.09C275.588 146.377 275.464 145.585 275.564 144.804C275.663 144.024 275.98 143.287 276.48 142.68C283.02 145.68 287.33 142.75 287.33 142.75C282.87 141.09 284.22 138.13 284.22 138.13C285.76 138.814 287.505 138.874 289.088 138.298C290.672 137.721 291.97 136.554 292.71 135.04C291.229 135.11 289.759 134.75 288.477 134.003C287.196 133.256 286.159 132.154 285.49 130.83Z" fill="#263238"/>
<path d="M268.61 129.09C268.627 129.802 268.504 130.511 268.247 131.175C267.989 131.839 267.603 132.446 267.11 132.96C265.79 134.33 264.17 133.37 263.73 131.62C263.34 130.04 263.56 127.43 265.28 126.71C265.658 126.561 266.068 126.509 266.472 126.559C266.875 126.609 267.26 126.759 267.591 126.996C267.922 127.232 268.189 127.548 268.367 127.914C268.544 128.279 268.628 128.684 268.61 129.09Z" fill="#E4897B"/>
<path d="M274.84 198.22C274.84 198.22 276.74 247.58 281.26 276.56C284.9 299.98 301.07 354.7 301.07 354.7H311.29C311.29 354.7 302.86 301.85 301.01 278.7C296.33 220.11 308.48 207.53 297.01 195.33L274.84 198.22Z" fill="#263238"/>
<path d="M283.38 213.83C283.38 213.83 278.76 213.03 276.06 221.83C277.06 238.5 278.77 260.62 281.26 276.56C281.81 280.11 282.65 284.39 283.68 289.08C281.73 260.92 283.38 213.83 283.38 213.83Z" fill="#161F33"/>
<path d="M266.87 199.26C266.87 199.26 258.45 253.87 258.94 276.72C259.45 300.49 268.16 354.72 268.16 354.72H278.29C278.29 354.72 276.69 301.9 277.58 278.56C278.58 253.11 288.97 196.39 288.97 196.39L266.87 199.26Z" fill="#263238"/>
<path d="M312.77 355.18H299.18L298.12 350.62L312.67 350.72L312.77 355.18Z" fill="#3B82F6"/>
<path opacity="0.2" d="M312.77 355.18H299.18L298.12 350.62L312.67 350.72L312.77 355.18Z" fill="black"/>
<path d="M296.5 149.55C300.41 149.93 306.35 161.04 306.35 161.04L296.48 168.61C296.48 168.61 288.31 161.44 289.28 157.41C290.29 153.22 292.75 149.2 296.5 149.55Z" fill="#3B82F6"/>
<path opacity="0.1" d="M296.5 149.55C300.41 149.93 306.35 161.04 306.35 161.04L296.48 168.61C296.48 168.61 288.31 161.44 289.28 157.41C290.29 153.22 292.75 149.2 296.5 149.55Z" fill="black"/>
<path d="M293.55 154.33C292.553 154.061 291.521 153.947 290.49 153.99C289.965 155.083 289.559 156.23 289.28 157.41C288.28 161.41 296.48 168.61 296.48 168.61L297.21 168.05L293.55 154.33Z" fill="#3B82F6"/>
<path opacity="0.3" d="M293.55 154.33C292.553 154.061 291.521 153.947 290.49 153.99C289.965 155.083 289.559 156.23 289.28 157.41C288.28 161.41 296.48 168.61 296.48 168.61L297.21 168.05L293.55 154.33Z" fill="black"/>
<path d="M263.52 165C260.67 172.21 257.67 179.54 255.28 186.77C255.12 187.23 254.99 187.67 254.85 188.12L254.51 189.23C254.417 189.557 254.417 189.903 254.51 190.23C255.074 191.48 255.97 192.552 257.1 193.33C260.09 195.475 263.348 197.22 266.79 198.52L265.89 202.2C261.655 201.642 257.56 200.306 253.81 198.26C251.502 197.027 249.623 195.123 248.42 192.8C247.729 191.315 247.489 189.66 247.73 188.04C247.753 187.842 247.786 187.645 247.83 187.45L247.93 187.03L248.1 186.27C248.22 185.76 248.34 185.27 248.47 184.77C249.47 180.77 250.75 176.97 252.1 173.2C253.45 169.43 254.86 165.71 256.45 162L263.52 165Z" fill="#E4897B"/>
<path d="M257.45 154.88C257.45 154.88 254.07 156.59 266.87 199.26L297.05 195.32C294.93 183.1 293.93 175.53 296.5 149.55C292.172 149.24 287.828 149.24 283.5 149.55C278.893 149.818 274.311 150.42 269.79 151.35C264 152.64 257.45 154.88 257.45 154.88Z" fill="#3B82F6"/>
<path opacity="0.1" d="M257.45 154.88C257.45 154.88 254.07 156.59 266.87 199.26L297.05 195.32C294.93 183.1 293.93 175.53 296.5 149.55C292.172 149.24 287.828 149.24 283.5 149.55C278.893 149.818 274.311 150.42 269.79 151.35C264 152.64 257.45 154.88 257.45 154.88Z" fill="black"/>
<path d="M297.27 193.49L299 196C299.13 196.2 298.91 196.44 298.57 196.49L266.92 200.63C266.65 200.63 266.4 200.56 266.36 200.39L265.74 197.72C265.69 197.54 265.91 197.35 266.21 197.31L296.77 193.31C296.862 193.295 296.956 193.304 297.043 193.336C297.131 193.367 297.209 193.42 297.27 193.49Z" fill="#3B82F6"/>
<path opacity="0.2" d="M297.27 193.49L299 196C299.13 196.2 298.91 196.44 298.57 196.49L266.92 200.63C266.65 200.63 266.4 200.56 266.36 200.39L265.74 197.72C265.69 197.54 265.91 197.35 266.21 197.31L296.77 193.31C296.862 193.295 296.956 193.304 297.043 193.336C297.131 193.367 297.209 193.42 297.27 193.49Z" fill="black"/>
<path d="M293.61 197.44L294.43 197.33C294.59 197.33 294.7 197.21 294.68 197.11L293.84 193.65C293.808 193.591 293.757 193.545 293.695 193.519C293.633 193.494 293.564 193.49 293.5 193.51L292.68 193.61C292.51 193.61 292.4 193.73 292.43 193.84L293.27 197.29C293.29 197.4 293.45 197.46 293.61 197.44Z" fill="#263238"/>
<path d="M273.77 200L274.59 199.89C274.75 199.89 274.87 199.77 274.84 199.67L274 196.21C273.967 196.152 273.916 196.105 273.855 196.078C273.794 196.051 273.725 196.045 273.66 196.06L272.84 196.17C272.68 196.17 272.56 196.29 272.59 196.39L273.43 199.85C273.45 200 273.61 200.06 273.77 200Z" fill="#263238"/>
<path d="M258.86 169.36C259.69 173.22 260.86 178.11 262.57 184.3L262.94 168.61L258.86 169.36Z" fill="#3B82F6"/>
<path opacity="0.3" d="M258.86 169.36C259.69 173.22 260.86 178.11 262.57 184.3L262.94 168.61L258.86 169.36Z" fill="black"/>
<path d="M257.45 154.88C253.7 156.39 250.45 169.22 250.45 169.22L263.35 175.5C263.35 175.5 269.58 159.81 266.79 156.75C264 153.69 261.77 153.15 257.45 154.88Z" fill="#3B82F6"/>
<path opacity="0.1" d="M257.45 154.88C253.7 156.39 250.45 169.22 250.45 169.22L263.35 175.5C263.35 175.5 269.58 159.81 266.79 156.75C264 153.69 261.77 153.15 257.45 154.88Z" fill="black"/>
<path d="M280.02 355.18H266.43L265.37 350.62L280.5 350.72L280.02 355.18Z" fill="#3B82F6"/>
<path opacity="0.2" d="M280.02 355.18H266.43L265.37 350.62L280.5 350.72L280.02 355.18Z" fill="black"/>
<path d="M267 197.28L265.91 196.83C265.642 196.721 265.35 196.685 265.064 196.725C264.777 196.766 264.507 196.881 264.279 197.06C264.052 197.238 263.875 197.474 263.769 197.743C263.662 198.012 263.628 198.304 263.67 198.59L264.46 203.8C264.498 204.061 264.593 204.31 264.739 204.529C264.885 204.749 265.078 204.933 265.304 205.069C265.53 205.205 265.783 205.289 266.045 205.315C266.307 205.341 266.572 205.309 266.82 205.22C267.217 205.076 267.588 204.87 267.92 204.61C268.282 204.31 268.568 203.929 268.755 203.499C268.943 203.068 269.027 202.599 269 202.13L268.89 199.97C268.871 199.386 268.682 198.821 268.346 198.343C268.011 197.865 267.543 197.496 267 197.28Z" fill="#E4897B"/>
</svg>
